<?xml version="1.0" encoding="UTF-8"?>
<svg version="1.1" xmlns="http://www.w3.org/2000/svg" width="3375" height="3375">
<path d="M0 0 C1113.75 0 2227.5 0 3375 0 C3375 1113.75 3375 2227.5 3375 3375 C2261.25 3375 1147.5 3375 0 3375 C0 2261.25 0 1147.5 0 0 Z " fill="#FE7271" transform="translate(0,0)"/>
<path d="M0 0 C5.47878152 1.50001591 8.85911586 5.33825016 12.8125 9.1875 C14.17187666 10.49484311 15.53255261 11.80083658 16.89453125 13.10546875 C17.90797607 14.07685791 17.90797607 14.07685791 18.94189453 15.06787109 C21.62226254 17.58417387 24.38415254 19.99690874 27.1628418 22.40356445 C29.64625203 24.56157369 32.07360844 26.77824387 34.5 29 C37.61907011 31.84524228 40.74755391 34.6719958 43.9375 37.4375 C47.83402275 40.82404841 51.63352828 44.31337995 55.43286133 47.80786133 C60.25565901 52.24210316 65.12332571 56.62510571 70 61 C71.66692647 62.49971128 73.33359149 63.99971321 75 65.5 C76.2375 66.61375 76.2375 66.61375 77.5 67.75 C95 83.5 95 83.5 97.50390625 85.75390625 C99.15703343 87.241462 100.81067256 88.72844903 102.46484375 90.21484375 C106.86513065 94.17023592 111.25270376 98.13867198 115.625 102.125 C118.68131949 104.90812892 121.74957248 107.66979803 124.875 110.375 C129.02313973 113.97912141 133.04438238 117.71575625 137.07495117 121.44995117 C142.00628445 126.01584189 146.99373763 130.51641429 152 135 C153.667057 136.49956619 155.33371995 137.99957053 157 139.5 C157.825 140.2425 158.65 140.985 159.5 141.75 C197 175.5 197 175.5 199.5078125 177.7578125 C201.14739879 179.23292618 202.78799655 180.70691652 204.4296875 182.1796875 C209.0203061 186.30097768 213.58447107 190.44873788 218.125 194.625 C221.38390494 197.62180011 224.65499549 200.59914547 228 203.5 C231.87661077 206.86187407 235.65197903 210.33082672 239.42871094 213.80371094 C245.51453297 219.39805964 251.63296846 224.95496438 257.875 230.375 C261.84330549 233.82919304 265.71012559 237.39130558 269.57983398 240.95483398 C272.33438092 243.487107 275.10725075 245.99020203 277.9375 248.4375 C282.12109857 252.06212089 286.1643461 255.83385067 290.22241211 259.59741211 C293.11364128 262.27401038 296.01889404 264.92311179 299 267.5 C302.57351987 270.58897481 306.03707432 273.78845925 309.5 277 C313.63276054 280.83172577 317.79421169 284.61465196 322.0546875 288.3046875 C327.99585136 293.4823283 333.80099741 298.81653844 339.625 304.125 C342.68131949 306.90812892 345.74957248 309.66979803 348.875 312.375 C353.02313973 315.97912141 357.04438238 319.71575625 361.07495117 323.44995117 C366.00628445 328.01584189 370.99373763 332.51641429 376 337 C377.667057 338.49956619 379.33371995 339.99957053 381 341.5 C381.82242188 342.23992187 382.64484375 342.97984375 383.4921875 343.7421875 C385.18592894 345.26708244 386.87861169 346.79315402 388.5703125 348.3203125 C392.29392283 351.67953282 396.02113519 355.02982984 399.8125 358.3125 C403.9772491 361.93877649 408.01945656 365.69313718 412.0703125 369.4453125 C418.23916695 375.15615456 424.45953812 380.8065997 430.8125 386.3125 C435.02988063 389.98239106 439.11613985 393.78985696 443.21533203 397.59033203 C446.78137649 400.89091927 450.3903507 404.1299706 454.0625 407.3125 C460.35869051 412.79627883 466.50007179 418.4516794 472.625 424.125 C476.7151973 427.91291944 480.83584013 431.65136682 485.05078125 435.30078125 C489.08096449 438.81406724 493.03116751 442.41778133 497 446 C498.64570244 447.4793123 500.29153535 448.95847946 501.9375 450.4375 C505.51239761 453.65322422 509.07173123 456.88539909 512.625 460.125 C515.68131949 462.90812892 518.74957248 465.66979803 521.875 468.375 C526.07583863 472.02264177 530.14106074 475.8124982 534.2199707 479.5949707 C537.73194931 482.84600996 541.28992688 486.02976764 544.91015625 489.16015625 C548.18114489 492.03984905 551.37503091 495.00354253 554.58056641 497.95556641 C557.33491097 500.48754824 560.1075121 502.99042801 562.9375 505.4375 C567.12032011 509.06144644 571.16271807 512.83255746 575.22021484 516.59521484 C578.73212744 519.84615512 582.29001418 523.02984313 585.91015625 526.16015625 C588.64370638 528.56670226 591.32110702 531.03306703 594 533.5 C597.96127753 537.14668562 601.95791359 540.74329123 606.0234375 544.2734375 C612.62679216 550.04158525 619.0792706 555.97974961 625.53588867 561.91088867 C629.49929536 565.54893634 633.49181076 569.15316568 637.49609375 572.74609375 C640.21607891 575.19450473 642.92095561 577.65900079 645.625 580.125 C648.70309566 582.92757381 651.7930187 585.70967875 654.9375 588.4375 C658.88667367 591.86768576 662.73022305 595.41003518 666.57788086 598.95288086 C669.3547637 601.50540453 672.14972015 604.02975746 675 606.5 C678.93167214 609.90744919 682.75361244 613.43129673 686.58032227 616.95532227 C689.33473428 619.48740116 692.10742499 621.99035268 694.9375 624.4375 C699.12032011 628.06144644 703.16271807 631.83255746 707.22021484 635.59521484 C710.73482029 638.84864787 714.29608667 642.03408762 717.91796875 645.16796875 C720.60516498 647.53249977 723.24051549 649.95216715 725.875 652.375 C732.47779662 658.44666828 739.10150348 664.49348656 745.875 670.375 C749.84330549 673.82919304 753.71012559 677.39130558 757.57983398 680.95483398 C760.33438092 683.487107 763.10725075 685.99020203 765.9375 688.4375 C770.12109857 692.06212089 774.1643461 695.83385067 778.22241211 699.59741211 C781.11364128 702.27401038 784.01889404 704.92311179 787 707.5 C790.57351987 710.58897481 794.03707432 713.78845925 797.5 717 C801.63411123 720.83297808 805.79732386 724.61667933 810.05859375 728.30859375 C816.65603756 734.05646733 823.08982481 739.99001737 829.53369141 745.90869141 C834.32537916 750.30658395 839.15872937 754.65686654 844 759 C845.66692647 760.49971128 847.33359149 761.99971321 849 763.5 C849.825 764.2425 850.65 764.985 851.5 765.75 C889 799.5 889 799.5 891.50390625 801.75390625 C893.15703343 803.241462 894.81067256 804.72844903 896.46484375 806.21484375 C900.86513065 810.17023592 905.25270376 814.13867198 909.625 818.125 C912.68131949 820.90812892 915.74957248 823.66979803 918.875 826.375 C923.07583863 830.02264177 927.14106074 833.8124982 931.2199707 837.5949707 C934.73464215 840.84850273 938.29599939 844.0340121 941.91796875 847.16796875 C944.60516498 849.53249977 947.24051549 851.95216715 949.875 854.375 C956.47779662 860.44666828 963.10150348 866.49348656 969.875 872.375 C974.82360215 876.68635761 979.63475347 881.14801975 984.46533203 885.59033203 C989.90962583 890.59118351 995.35459692 895.5913099 1000.9375 900.4375 C1004.88667367 903.86768576 1008.73022305 907.41003518 1012.57788086 910.95288086 C1015.3547637 913.50540453 1018.14972015 916.02975746 1021 918.5 C1024.87661077 921.86187407 1028.65197903 925.33082672 1032.42871094 928.80371094 C1038.49288124 934.37815644 1044.58671854 939.91855573 1050.8125 945.3125 C1054.97880355 948.94012996 1059.02272097 952.69571248 1063.07470703 956.44970703 C1068.00611197 961.01571699 1072.99449056 965.5153891 1078 970 C1079.7084599 971.54152641 1081.41679284 973.08319353 1083.125 974.625 C1085.99908285 977.21390253 1088.88819601 979.78055546 1091.8125 982.3125 C1098.25237043 987.92475656 1104.46555071 993.79365105 1110.72753906 999.60253906 C1118.21820006 1006.58098188 1118.21820006 1006.58098188 1125.875 1013.375 C1130.44115632 1017.32462888 1134.82019248 1021.47393215 1139.22558594 1025.60058594 C1144.13882341 1030.20202648 1149.08755383 1034.7614159 1154.0546875 1039.3046875 C1162.14937532 1046.71229306 1170.19276001 1054.17212608 1178.1875 1061.6875 C1183.20487666 1066.4031859 1188.26228299 1071.06197177 1193.3984375 1075.6484375 C1198.67406749 1080.41710005 1203.84520285 1085.29967299 1209.03564453 1090.16064453 C1212.22964024 1093.15139318 1215.42687059 1096.13867272 1218.625 1099.125 C1219.24850342 1099.70725342 1219.87200684 1100.28950684 1220.5144043 1100.8894043 C1225.02099508 1105.09449573 1229.54571265 1109.27946248 1234.07983398 1113.45483398 C1238.30128199 1117.34564387 1242.49587422 1121.26460856 1246.6875 1125.1875 C1250.71582076 1128.95651723 1254.75660833 1132.70410759 1258.875 1136.375 C1264.2677517 1141.19060101 1269.50384105 1146.16962872 1274.7590332 1151.1340332 C1279.23277965 1155.3542591 1283.75471173 1159.50718771 1288.34765625 1163.59765625 C1292.64810272 1167.49275872 1296.8591249 1171.48312446 1301.08227539 1175.46166992 C1305.77728143 1179.87723136 1310.53213474 1184.20749992 1315.375 1188.4609375 C1316.179375 1189.22277344 1316.179375 1189.22277344 1317 1190 C1317 1190.33 1317 1190.66 1317 1191 C1196.22 1191 1075.44 1191 951 1191 C951 1460.61 951 1730.22 951 2008 C494.28 2008 37.56 2008 -433 2008 C-433 1392 -433 1392 -427 1365 C-426.69514057 1362.97809356 -426.39066566 1360.95599021 -426.11474609 1358.92993164 C-422.79722368 1335.00250219 -415.8301676 1311.78950947 -408 1289 C-407.69594238 1288.11135254 -407.39188477 1287.22270508 -407.07861328 1286.30712891 C-402.44213443 1272.90022001 -396.81986376 1259.92996951 -391 1247 C-390.63148926 1246.175 -390.26297852 1245.35 -389.88330078 1244.5 C-383.75574272 1230.85952292 -376.55272971 1217.89784546 -369 1205 C-368.52804199 1204.19143555 -368.05608398 1203.38287109 -367.56982422 1202.54980469 C-355.17901259 1181.44747108 -340.6826524 1161.76271506 -325 1143 C-324.57025879 1142.4838916 -324.14051758 1141.9677832 -323.69775391 1141.43603516 C-309.3904881 1124.30516881 -294.05268309 1107.44533084 -277 1093 C-276.00871094 1092.13117188 -275.01742187 1091.26234375 -273.99609375 1090.3671875 C-265.62776359 1083.05206014 -256.96252752 1076.20604871 -248.06542969 1069.54638672 C-246.1350542 1068.10111505 -244.21188628 1066.64669765 -242.2890625 1065.19140625 C-194.20288097 1029.07461589 -137.3779164 1002.01635832 -78.66308594 988.61230469 C-75.7000469 987.93103389 -72.74513591 987.21867563 -69.7890625 986.5078125 C-53.3153815 982.62017885 -36.80973873 979.94570094 -20 978 C-19.30964661 977.91279694 -18.61929321 977.82559387 -17.90802002 977.73574829 C-2.20231 975.76217071 13.43696604 975.64045933 29.25 975.6875 C30.59582518 975.69002084 31.94165038 975.69253338 33.28747559 975.69503784 C53.0096312 975.74411914 72.4627723 976.05249003 92 979 C92.75635742 979.11406189 93.51271484 979.22812378 94.29199219 979.34564209 C155.08257326 988.60108731 212.872985 1007.6547413 266 1039 C267.36264098 1039.78756717 268.72586539 1040.5741263 270.08984375 1041.359375 C291.78097256 1053.96164533 312.20632063 1069.14310363 331.15234375 1085.5546875 C333.9494368 1087.95658085 336.8064339 1090.26245557 339.6875 1092.5625 C344.31686032 1096.32385526 348.49483504 1100.3922245 352.66015625 1104.65625 C354.7484622 1106.74804227 356.88258997 1108.70168536 359.125 1110.625 C365.29711138 1115.92779992 370.87096219 1121.72074829 376.16796875 1127.890625 C378.15311587 1130.17629546 380.2003983 1132.39701378 382.25 1134.625 C387.34835728 1140.27733837 392.00842754 1146.23456862 396.65332031 1152.25927734 C397.90267866 1153.87420211 399.16562873 1155.47858693 400.4296875 1157.08203125 C412.84491505 1172.93688742 423.97743725 1189.53793667 434 1207 C434.44859375 1207.78149414 434.8971875 1208.56298828 435.359375 1209.36816406 C441.2747492 1219.73311753 446.82943502 1230.24513239 452 1241 C452.40299316 1241.82580566 452.80598633 1242.65161133 453.22119141 1243.50244141 C464.31345655 1266.34191175 473.48505912 1290.44172677 480 1315 C480.39429747 1316.39236293 480.79019891 1317.7842724 481.1875 1319.17578125 C486.65229975 1338.66532632 490.40737834 1358.65887866 493.25 1378.6875 C493.47635132 1380.24766846 493.47635132 1380.24766846 493.70727539 1381.83935547 C496.73969931 1404.47575939 497.28888595 1427.1742385 497.1953125 1449.98046875 C497.19235984 1452.43509835 497.19032697 1454.88972923 497.18920898 1457.34436035 C497.17886333 1466.29209318 497.15094235 1475.23979879 497.125 1484.1875 C497.08375 1504.255625 497.0425 1524.32375 497 1545 C430.01 1545 363.02 1545 294 1545 C293.625 1485.375 293.625 1485.375 293.52197266 1466.68115234 C293.48197857 1461.05853889 293.48197857 1461.05853889 293.43954468 1455.4359436 C293.4220799 1452.96859871 293.40818102 1450.50122674 293.39730835 1448.03384399 C293.30668277 1428.34273671 293.15146686 1408.43062227 288.8125 1389.125 C288.59891846 1388.1450708 288.38533691 1387.1651416 288.1652832 1386.15551758 C284.10617736 1368.08738853 278.69456863 1350.84148261 271 1334 C270.65211426 1333.21818359 270.30422852 1332.43636719 269.94580078 1331.63085938 C259.05863919 1307.17585293 244.19975394 1285.11161443 226.140625 1265.36328125 C224.27147093 1263.29970787 222.47676638 1261.19485387 220.6875 1259.0625 C212.84153354 1250.0749726 203.35770295 1242.34386739 194 1235 C193.11054688 1234.30173096 193.11054688 1234.30173096 192.203125 1233.58935547 C182.86609085 1226.3042864 173.36329692 1219.73415853 163 1214 C162.1661377 1213.5359375 161.33227539 1213.071875 160.47314453 1212.59375 C140.23596593 1201.43041499 119.31845339 1192.99248114 97 1187 C96.27651367 1186.80567383 95.55302734 1186.61134766 94.80761719 1186.41113281 C86.55144243 1184.2400506 78.24882879 1182.61181662 69.8125 1181.3125 C69.04164062 1181.19302002 68.27078125 1181.07354004 67.4765625 1180.95043945 C-1.86617418 1170.92507101 -71.79766499 1191.13354052 -127.59765625 1232.65625 C-135.98422842 1239.02224448 -143.70373454 1246.04176951 -151.28076172 1253.34375 C-152.84700801 1254.85261322 -154.42447229 1256.34872949 -156.00390625 1257.84375 C-162.62002043 1264.24340525 -168.26813598 1271.13510871 -173.81445312 1278.45166016 C-175.33578474 1280.4385393 -176.92220811 1282.37031331 -178.5 1284.3125 C-203.57594777 1316.79182283 -220.02566708 1357.21915216 -226.6875 1397.5625 C-226.80722168 1398.28179688 -226.92694336 1399.00109375 -227.05029297 1399.7421875 C-248.48607498 1539.86811226 -229.64824919 1683.24442229 -230 1825 C103.63 1825 437.26 1825 781 1825 C781 1569.91 781 1314.82 781 1052 C825.22 1051.67 869.44 1051.34 915 1051 C902.6380151 1039.34792454 902.6380151 1039.34792454 890 1028 C884.39704625 1023.02443765 878.87211581 1017.96679852 873.375 1012.875 C869.28209981 1009.08457743 865.1579467 1005.3445676 860.94140625 1001.69140625 C854.29149834 995.89782451 847.81036723 989.91386511 841.3190918 983.9440918 C838.59750506 981.4465688 835.85581004 978.97944827 833.0625 976.5625 C828.93166958 972.9813019 824.9323298 969.26291164 820.92260742 965.54760742 C816.80415734 961.73409536 812.64892147 957.96461794 808.46875 954.21875 C805.75912541 951.78351777 803.06667829 949.33004724 800.375 946.875 C797.31868051 944.09187108 794.25042752 941.33020197 791.125 938.625 C786.92338357 934.97668285 782.85731025 931.18620976 778.77783203 927.40283203 C775.8865336 924.72613853 772.98119324 922.07696365 770 919.5 C765.83355923 915.89850036 761.81237288 912.14479539 757.77514648 908.40014648 C754.9062682 905.74405476 752.02366124 903.11610356 749.0625 900.5625 C745.28785332 897.30075647 741.64711228 893.90260246 738 890.5 C733.74068804 886.52654041 729.45665854 882.60361122 725.046875 878.796875 C721.83896501 875.98077081 718.70793801 873.08098559 715.56640625 870.19140625 C710.74377126 865.7574975 705.87641782 861.37466422 701 857 C698.49687583 854.74797293 695.99453386 852.49507877 693.4921875 850.2421875 C691.85260121 848.76707382 690.21200345 847.29308348 688.5703125 845.8203125 C683.4543186 841.22735951 678.37648658 836.5956656 673.31640625 831.94140625 C670.61737009 829.46439877 667.89800842 827.01879359 665.125 824.625 C660.69077523 820.78447896 656.4264908 816.76362199 652.13769531 812.76269531 C648.49662956 809.37206288 644.81327478 806.04821156 641.046875 802.796875 C638.36932016 800.44634976 635.7471851 798.03681864 633.125 795.625 C626.52224608 789.55328755 619.89849465 783.50651182 613.125 777.625 C607.11354055 772.38609759 601.28289359 766.94449212 595.41796875 761.54296875 C588.30594897 754.97964066 588.30594897 754.97964066 581.0625 748.5625 C576.87967989 744.93855356 572.83728193 741.16744254 568.77978516 737.40478516 C565.26517971 734.15135213 561.70391333 730.96591238 558.08203125 727.83203125 C554.86353123 724.99999277 551.71706589 722.08972052 548.56225586 719.18725586 C545.39202282 716.27195596 542.20596675 713.37609236 539 710.5 C535.26705169 707.15114927 531.56554155 703.77034435 527.875 700.375 C524.63786909 697.3977736 521.38862144 694.44047034 518.0625 691.5625 C513.87967989 687.93855356 509.83728193 684.16744254 505.77978516 680.40478516 C502.26517971 677.15135213 498.70391333 673.96591238 495.08203125 670.83203125 C491.86353123 667.99999277 488.71706589 665.08972052 485.56225586 662.18725586 C482.39202282 659.27195596 479.20596675 656.37609236 476 653.5 C472.26705124 650.15114887 468.56556475 646.77031957 464.875 643.375 C461.00637105 639.81741659 457.09665736 636.31710305 453.125 632.875 C449.84568857 629.98148991 446.63893288 627.00911641 443.421875 624.046875 C440.64505943 621.49444857 437.85019283 618.97016712 435 616.5 C431.12027047 613.13542128 427.34142491 609.66411092 423.5625 606.1875 C420.39220211 603.27210044 417.20605243 600.37616922 414 597.5 C410.26705124 594.15114887 406.56556475 590.77031957 402.875 587.375 C399.6161367 584.37815586 396.34500325 581.40085344 393 578.5 C389.12182987 575.13677362 385.34472189 571.66664329 381.56689453 568.19189453 C376.74415595 563.75776818 371.87698791 559.37436758 367 555 C361.77655199 550.3080316 356.56356718 545.60554194 351.375 540.875 C348.31868051 538.09187108 345.25042752 535.33020197 342.125 532.625 C337.92416137 528.97735823 333.85893926 525.1875018 329.7800293 521.4050293 C326.26805069 518.15399004 322.71007312 514.97023236 319.08984375 511.83984375 C315.81885511 508.96015095 312.62496909 505.99645747 309.41943359 503.04443359 C306.66508903 500.51245176 303.8924879 498.00957199 301.0625 495.5625 C296.87890143 491.93787911 292.8356539 488.16614933 288.77758789 484.40258789 C285.88635872 481.72598962 282.98110596 479.07688821 280 476.5 C276.42648214 473.41102693 272.96288886 470.21157787 269.5 467 C265.41431269 463.21115843 261.29606631 459.47828053 257.08203125 455.83203125 C253.86508207 453.00135739 250.7202932 450.09232984 247.56665039 447.19165039 C242.74396118 442.75763061 237.87650331 438.37474091 233 434 C231.33307353 432.50028872 229.66640851 431.00028679 228 429.5 C227.175 428.7575 226.35 428.015 225.5 427.25 C223 425 220.5 422.75 218 420.5 C217.17757813 419.76007813 216.35515625 419.02015625 215.5078125 418.2578125 C213.81407106 416.73291756 212.12138831 415.20684598 210.4296875 413.6796875 C206.70607717 410.32046718 202.97886481 406.97017016 199.1875 403.6875 C195.02119645 400.05987004 190.97727903 396.30428752 186.92529297 392.55029297 C181.99390156 387.98429554 177.00634797 383.48366237 172 379 C170.332943 377.50043381 168.66628005 376.00042947 167 374.5 C166.175 373.7575 165.35 373.015 164.5 372.25 C107 320.5 107 320.5 104.49609375 318.24609375 C102.84296657 316.758538 101.18932744 315.27155097 99.53515625 313.78515625 C95.13486935 309.82976408 90.74729624 305.86132802 86.375 301.875 C83.31868051 299.09187108 80.25042752 296.33020197 77.125 293.625 C72.97686027 290.02087859 68.95561762 286.28424375 64.92504883 282.55004883 C59.99371555 277.98415811 55.00626237 273.48358571 50 269 C48.332943 267.50043381 46.66628005 266.00042947 45 264.5 C44.175 263.7575 43.35 263.015 42.5 262.25 C25 246.5 25 246.5 22.52734375 244.2734375 C20.77106739 242.69360312 19.01313343 241.11561032 17.25390625 239.5390625 C16.36574219 238.74242187 15.47757813 237.94578125 14.5625 237.125 C13.75941406 236.40570312 12.95632813 235.68640625 12.12890625 234.9453125 C10.36948311 233.33761943 8.66593812 231.70343512 7 230 C3.993182 231.33999498 2.00237391 232.79845291 -0.25 235.1875 C-3.27938411 238.38934904 -6.54794042 241.24193729 -9.87255859 244.12866211 C-13.21741393 247.07086043 -16.45023209 250.12799297 -19.6875 253.1875 C-21.0933817 254.51080806 -22.49963661 255.83371972 -23.90625 257.15625 C-24.5971875 257.8059375 -25.288125 258.455625 -26 259.125 C-30.44331728 263.29060995 -34.92838157 267.41102943 -39.41015625 271.53515625 C-41.05684157 273.05237245 -42.70065431 274.5726475 -44.34375 276.09375 C-49.16070104 280.55155164 -53.9824388 284.99999899 -58.875 289.375 C-63.75662929 293.74944703 -68.54175038 298.22316906 -73.32714844 302.70214844 C-78.20379865 307.26433455 -83.11456985 311.78681554 -88.04296875 316.29296875 C-91.18333159 319.16490659 -94.31138814 322.05006534 -97.4375 324.9375 C-97.97777832 325.43652832 -98.51805664 325.93555664 -99.07470703 326.44970703 C-100.16948306 327.46104672 -101.2642095 328.47244008 -102.35888672 329.48388672 C-105.61239388 332.48958138 -108.86763876 335.49339394 -112.12255859 338.49755859 C-114.84399973 341.00946922 -117.56501749 343.52183529 -120.28515625 346.03515625 C-128.46624188 353.59301382 -136.6674161 361.12861255 -144.890625 368.640625 C-150.45610448 373.72991372 -155.99154939 378.84900524 -161.5 384 C-167.96186012 390.04253536 -174.46821752 396.03312844 -181 402 C-182.97993912 403.81165744 -184.95892908 405.62434846 -186.9375 407.4375 C-187.43088867 407.88963867 -187.92427734 408.34177734 -188.43261719 408.80761719 C-194.30243746 414.18987289 -200.15091334 419.59523565 -206 425 C-212.81550163 431.2977662 -219.63643443 437.58922018 -226.48071289 443.85571289 C-230.71416855 447.73354438 -234.93272921 451.62734613 -239.14892578 455.52392578 C-242.71483801 458.81806858 -246.29203075 462.09941685 -249.875 465.375 C-254.48819448 469.59335068 -259.0611722 473.85333022 -263.625 478.125 C-268.48275949 482.67116179 -273.38185704 487.16112562 -278.34375 491.59375 C-282.43242659 495.29760997 -286.44858216 499.07842836 -290.47485352 502.84985352 C-293.93083446 506.0826148 -297.40591125 509.28706079 -300.9375 512.4375 C-306.08589857 517.03397645 -311.10371322 521.76664571 -316.11694336 526.50952148 C-319.35292865 529.56107867 -322.6169984 532.56121109 -325.9765625 535.4765625 C-330.17539428 539.12331997 -334.21678528 542.92191931 -338.25 546.75 C-345.1088596 553.23258168 -352.02470251 559.64301143 -359 566 C-360.97983143 567.81178208 -362.95916813 569.6240828 -364.9375 571.4375 C-365.4310498 571.8897998 -365.92459961 572.34209961 -366.43310547 572.80810547 C-371.75391018 577.68680502 -377.05676792 582.58489902 -382.35888672 587.48388672 C-383.99020187 588.99094817 -385.62195809 590.4975303 -387.25390625 592.00390625 C-387.79031738 592.49914795 -388.32672852 592.99438965 -388.87939453 593.50463867 C-389.95406492 594.49625604 -391.0292549 595.48731061 -392.10498047 596.4777832 C-394.93875998 599.08852183 -397.7603546 601.71102137 -400.56640625 604.3515625 C-401.44425781 605.17333984 -401.44425781 605.17333984 -402.33984375 606.01171875 C-403.45925179 607.06005326 -404.5753383 608.11194983 -405.6875 609.16796875 C-408.29766611 611.60545212 -410.67267794 613.64353777 -414 615 C-414 615.66 -414 616.32 -414 617 C-415.328125 618.33984375 -415.328125 618.33984375 -417.25 619.9375 C-426.29448051 627.63560425 -434.90221174 635.83371075 -443.57250977 643.94750977 C-447.78652101 647.88487352 -452.05130089 651.75847156 -456.3515625 655.6015625 C-460.38668763 659.25579086 -464.35321782 662.98264424 -468.32763672 666.70263672 C-473.20415826 671.26462323 -478.11473963 675.78697078 -483.04296875 680.29296875 C-486.1833317 683.16490669 -489.31137033 686.05008448 -492.4375 688.9375 C-493.24682983 689.68495483 -493.24682983 689.68495483 -494.07250977 690.44750977 C-495.71516131 691.96483906 -497.35761721 693.48237982 -499 695 C-505.81550163 701.2977662 -512.63643443 707.58922018 -519.48071289 713.85571289 C-523.71416855 717.73354438 -527.93272921 721.62734613 -532.14892578 725.52392578 C-535.71483801 728.81806858 -539.29203075 732.09941685 -542.875 735.375 C-547.44410054 739.55420396 -551.97741903 743.77052808 -556.5 748 C-561.98408393 753.12865976 -567.49735182 758.22278008 -573.0390625 763.2890625 C-576.2025574 766.18206485 -579.35174157 769.09043671 -582.5 772 C-589.14252743 778.13710701 -595.80911704 784.24768669 -602.47949219 790.35449219 C-612.92556816 799.91915898 -623.34507139 809.51073116 -633.6875 819.1875 C-638.57445182 823.75832809 -643.50009303 828.27776914 -648.48828125 832.73828125 C-653.14331292 836.92998162 -657.72979818 841.19639373 -662.32666016 845.45166016 C-665.04870989 847.97037031 -667.7744926 850.4850327 -670.5 853 C-673.76239454 856.01098786 -677.02443595 859.02235528 -680.28515625 862.03515625 C-686.00632222 867.32042386 -691.73604232 872.5960005 -697.48071289 877.85571289 C-701.16227511 881.2280118 -704.8330747 884.61179586 -708.5 888 C-712.65844899 891.84236736 -716.82409049 895.67661574 -721 899.5 C-726.80107262 904.81199816 -732.58169141 910.14594356 -738.35888672 915.48388672 C-740.53090442 917.49046659 -742.70376073 919.49613692 -744.87670898 921.50170898 C-745.96093108 922.50244158 -747.04507794 923.50325569 -748.12915039 924.50415039 C-750.81148255 926.98061326 -753.49465476 929.45615272 -756.1796875 931.9296875 C-762.03628745 937.32715727 -767.87193894 942.7458173 -773.6875 948.1875 C-778.57443161 952.75834912 -783.50009364 957.27776969 -788.48828125 961.73828125 C-793.14331292 965.92998162 -797.72979818 970.19639373 -802.32666016 974.45166016 C-805.04870992 976.97037034 -807.77450841 979.48501553 -810.5 982 C-811.58335206 982.99997971 -812.66668538 983.99997973 -813.75 985 C-815.91666667 987 -818.08333333 989 -820.25 991 C-820.78633057 991.49508057 -821.32266113 991.99016113 -821.87524414 992.50024414 C-822.95773871 993.49945738 -824.04025821 994.49864362 -825.12280273 995.49780273 C-827.84417508 998.00961835 -830.56510195 1000.52191333 -833.28515625 1003.03515625 C-839.00708317 1008.32112683 -844.73783427 1013.59710804 -850.48291016 1018.85791016 C-854.14181699 1022.2098094 -857.7918064 1025.57123681 -861.4375 1028.9375 C-861.97181641 1029.43056641 -862.50613281 1029.92363281 -863.05664062 1030.43164062 C-865.88723134 1033.04475499 -868.71369688 1035.66218372 -871.53515625 1038.28515625 C-872.11531494 1038.82342041 -872.69547363 1039.36168457 -873.29321289 1039.91625977 C-874.39657435 1040.94007693 -875.49871171 1041.96521558 -876.59936523 1042.99194336 C-879.64740034 1045.81755824 -882.74312585 1048.39450068 -886 1051 C-807.79 1051.495 -807.79 1051.495 -728 1052 C-728 1460.21 -728 1868.42 -728 2289 C75.55 2289 879.1 2289 1707 2289 C1707 2349.39 1707 2409.78 1707 2472 C1656.93709464 2472.00342989 1656.93709464 2472.00342989 1638.67132151 2472.0046621 C1637.47456749 2472.00474283 1636.27781346 2472.00482357 1635.04479416 2472.00490675 C1579.146562 2472.00867483 1523.24832983 2472.01230107 1467.35009766 2472.01586914 C1466.17761379 2472.015944 1466.17761379 2472.015944 1464.98144337 2472.01602038 C1380.86540036 2472.02139063 1296.74935733 2472.02653953 963.0934895 2472.042239 C960.30830229 2472.04234323 957.52311508 2472.04244766 954.73792787 2472.04255217 C875.82074826 2472.04551293 796.90356866 2472.04827978 717.98638904 2472.05078693 C715.065667 2472.05087972 712.14494497 2472.05097252 709.22422294 2472.05106533 C707.77722811 2472.05111131 707.77722811 2472.05111131 706.30100107 2472.05115821 C670.02781101 2472.05231126 633.75462096 2472.05350863 597.4814309 2472.05473244 C593.54024363 2472.05486537 589.59905636 2472.05499779 585.6578691 2472.05512976 C492.6044932 2472.05824588 399.55111743 2472.06215973 306.4977417 2472.06866455 C305.51796243 2472.06873299 304.53818316 2472.06880142 303.52871361 2472.06887193 C270.94573269 2472.07114901 238.36275178 2472.0735034 205.77977086 2472.07586844 C176.3400612 2472.07800509 146.90035153 2472.08011399 117.46064186 2472.08213139 C116.49356647 2472.08219767 115.52649108 2472.08226395 114.53011037 2472.08233224 C53.98564152 2472.08647458 -6.55882731 2472.08941535 -67.10329628 2472.09113979 C-68.50547293 2472.09117997 -68.50547293 2472.09117997 -69.93597639 2472.09122096 C-110.98521256 2472.09239616 -152.03444874 2472.09332053 -193.08368492 2472.0939579 C-209.59683948 2472.09421546 -226.10999404 2472.09451019 -242.62314859 2472.09482527 C-245.36120377 2472.09487721 -248.09925894 2472.09492794 -250.83731411 2472.09497854 C-292.7449935 2472.09576162 -334.65267264 2472.09737646 -376.56035185 2472.10139394 C-377.91713939 2472.10152399 -377.91713939 2472.10152399 -379.30133678 2472.10165666 C-393.8529388 2472.10305652 -408.40454081 2472.10452544 -422.95614281 2472.10600626 C-464.2437614 2472.1102078 -505.53137974 2472.11394815 -546.81899858 2472.11413276 C-548.07442477 2472.11413872 -548.07442477 2472.11413872 -549.35521312 2472.11414481 C-567.61042529 2472.11422158 -585.86563746 2472.11402546 -604.12084963 2472.1135619 C-611.40043832 2472.11338145 -618.68002701 2472.11323843 -625.95961571 2472.11310768 C-627.15076959 2472.11308483 -627.15076959 2472.11308483 -628.36598719 2472.11306151 C-653.59433505 2472.11259548 -678.82268134 2472.11521727 -704.05102879 2472.11960873 C-728.8733414 2472.12391715 -753.69565205 2472.12522171 -778.51796491 2472.12209016 C-781.91103537 2472.1216626 -785.30410583 2472.12127019 -788.69717629 2472.12089889 C-789.36148624 2472.12082487 -790.02579618 2472.12075084 -790.71023673 2472.12067457 C-801.85851784 2472.11952956 -813.00679516 2472.12234354 -824.1550755 2472.126217 C-833.77875235 2472.12929166 -843.40242457 2472.12880488 -853.02610127 2472.12530107 C-858.49791887 2472.12341226 -863.9697239 2472.12314656 -869.44154057 2472.12723524 C-874.39419268 2472.13090759 -879.34682169 2472.13008016 -884.29947284 2472.12547626 C-886.08703768 2472.12463352 -887.87460425 2472.1255043 -889.66216725 2472.12820339 C-892.06879049 2472.13160085 -894.47533017 2472.12895339 -896.8819501 2472.12467116 C-897.58345856 2472.12713146 -898.28496701 2472.12959175 -899.00773329 2472.13212659 C-903.77168318 2472.11415841 -903.77168318 2472.11415841 -906 2471 C-906 2047.94 -906 1624.88 -906 1189 C-1029.75 1189 -1153.5 1189 -1281 1189 C-1274.30672269 1181.19117647 -1274.30672269 1181.19117647 -1271.125 1178.5625 C-1267.64232302 1175.60288668 -1264.42374929 1172.47459748 -1261.25 1169.1875 C-1259.29928431 1167.29097086 -1257.30750988 1165.50528958 -1255.25390625 1163.72265625 C-1251.04507678 1160.06631468 -1246.9824702 1156.27335413 -1242.9375 1152.4375 C-1241.43775066 1151.02056798 -1239.9377459 1149.60390626 -1238.4375 1148.1875 C-1237.31988281 1147.13175781 -1237.31988281 1147.13175781 -1236.1796875 1146.0546875 C-1232.94324739 1143.00384969 -1229.69152379 1139.96956 -1226.4375 1136.9375 C-1221.3054645 1132.15330699 -1216.18026431 1127.36195827 -1211.0625 1122.5625 C-1210.39927734 1121.94052734 -1209.73605469 1121.31855469 -1209.05273438 1120.67773438 C-1207.03503523 1118.78528522 -1205.01748772 1116.89267456 -1203 1115 C-1193.91923645 1106.48102366 -1184.83253495 1097.96859528 -1175.7265625 1089.4765625 C-1173.19872055 1087.11910694 -1170.67284588 1084.75956934 -1168.1484375 1082.3984375 C-1166.86987419 1081.20303673 -1165.59122901 1080.00772351 -1164.3125 1078.8125 C-1163.38135376 1077.94214111 -1163.38135376 1077.94214111 -1162.43139648 1077.05419922 C-1158.477748 1073.3641273 -1154.49733786 1069.70513825 -1150.5 1066.0625 C-1146.81696459 1062.69951446 -1143.23698336 1059.27798205 -1139.74731445 1055.71630859 C-1137.99115003 1053.99130707 -1136.1747351 1052.38230633 -1134.30859375 1050.77734375 C-1130.03851659 1047.06266018 -1125.91756458 1043.20773322 -1121.8125 1039.3125 C-1116.73446185 1034.51265003 -1111.64578339 1029.72718773 -1106.5 1025 C-1099.32573455 1018.40346716 -1092.24244751 1011.71103569 -1085.15087891 1005.02587891 C-1079.11223885 999.33817912 -1073.05629586 993.66888663 -1067 988 C-1066.02885254 987.09072754 -1066.02885254 987.09072754 -1065.03808594 986.16308594 C-1058.76047765 980.28744556 -1052.47554659 974.42182045 -1046.125 968.625 C-1040.47918277 963.46549812 -1034.91328036 958.22394149 -1029.3503418 952.9753418 C-1025.06829378 948.93811886 -1020.76918602 944.92140129 -1016.4375 940.9375 C-1011.64174359 936.52630542 -1006.87598293 932.0843858 -1002.125 927.625 C-1001.45291504 926.99416504 -1000.78083008 926.36333008 -1000.08837891 925.71337891 C-999.41597168 925.08222168 -998.74356445 924.45106445 -998.05078125 923.80078125 C-989.03951197 915.34258915 -980.00316107 906.9120519 -970.91333008 898.53833008 C-966.75973526 894.7090666 -962.62725816 890.85761975 -958.5 887 C-949.22010642 878.32823461 -939.88352334 869.71921064 -930.51660156 861.14160156 C-925.20795844 856.27853635 -919.91997846 851.3931858 -914.63232422 846.50732422 C-913.02804639 845.02589866 -911.42245634 843.54591008 -909.81640625 842.06640625 C-904.00420122 836.71047981 -898.2109474 831.33519997 -892.4375 825.9375 C-885.04515923 819.02773968 -877.58894551 812.19098817 -870.1171875 805.3671875 C-863.84669192 799.63177421 -857.61502091 793.85787682 -851.42651367 788.03393555 C-848.35528839 785.15416327 -845.25054278 782.32952676 -842.0703125 779.5703125 C-837.81265893 775.86800505 -833.71564477 772.00994377 -829.625 768.125 C-824.33394012 763.12136136 -819.01074474 758.17001866 -813.57421875 753.32421875 C-810.24292217 750.31644718 -806.96488817 747.25378957 -803.6875 744.1875 C-786.62231375 728.22260029 -786.62231375 728.22260029 -778.1875 720.6875 C-773.72698095 716.69267951 -769.36099618 712.60262659 -765 708.5 C-759.87503013 703.67866176 -754.71648942 698.90673055 -749.46875 694.21875 C-741.04435739 686.64746044 -732.79541195 678.88067747 -724.52124023 671.14624023 C-719.69443051 666.63827022 -714.83542958 662.16724259 -709.9609375 657.7109375 C-706.79744272 654.81793526 -703.64824074 651.90958228 -700.5 649 C-696.34159758 645.15758185 -692.17585153 641.32344738 -688 637.5 C-679.06324646 629.31445608 -670.16195543 621.09238646 -661.3125 612.8125 C-656.42554818 608.24167191 -651.49990697 603.72223086 -646.51171875 599.26171875 C-641.85668708 595.07001838 -637.27020182 590.80360627 -632.67333984 586.54833984 C-629.95129008 584.02962966 -627.22549159 581.51498447 -624.5 579 C-623.41664794 578.00002029 -622.33331462 577.00002027 -621.25 576 C-611.5 567 -611.5 567 -601.75 558 C-601.2135083 557.5047583 -600.6770166 557.0095166 -600.12426758 556.49926758 C-599.04345056 555.50162782 -597.96255891 554.50406892 -596.8815918 553.5065918 C-594.1341339 550.97114572 -591.38808099 548.43420618 -588.64453125 545.89453125 C-583.831091 541.44107952 -579.01343831 536.99631425 -574.125 532.625 C-569.24337071 528.25055297 -564.45824962 523.77683094 -559.67285156 519.29785156 C-555.75884171 515.63623126 -551.83029203 511.99198439 -547.875 508.375 C-538.80170783 500.0759621 -529.77177741 491.7345775 -520.8125 483.3125 C-515.79914484 478.6005938 -510.74671066 473.94454346 -505.61328125 469.36328125 C-501.58625089 465.72149744 -497.63135819 462.00322355 -493.66772461 458.29272461 C-489.79847673 454.67263469 -485.9116415 451.07424925 -482 447.5 C-477.47263764 443.36208816 -472.97940488 439.18975405 -468.5 435 C-463.01461826 429.87003656 -457.49978027 424.7748995 -451.95703125 419.70703125 C-447.165567 415.32512121 -442.40117589 410.91380545 -437.63232422 406.50732422 C-436.02804639 405.02589866 -434.42245634 403.54591008 -432.81640625 402.06640625 C-427.00420181 396.71048035 -421.21087567 391.33527613 -415.4375 385.9375 C-410.01983346 380.87229156 -404.5683459 375.84741292 -399.09375 370.84375 C-394.89848196 366.99808763 -390.74856144 363.10378079 -386.59277344 359.21557617 C-381.55829852 354.50957797 -376.48451287 349.84859301 -371.390625 345.20703125 C-369.9874852 343.91164892 -368.60906705 342.58665117 -367.296875 341.19921875 C-366 340 -366 340 -364 340 C-364 339.34 -364 338.68 -364 338 C-362.51586914 336.52172852 -362.51586914 336.52172852 -360.47265625 334.81640625 C-356.34372944 331.30441423 -352.37769187 327.65868171 -348.4375 323.9375 C-347.03528639 322.61835123 -345.63293943 321.2993442 -344.23046875 319.98046875 C-343.52712402 319.31837402 -342.8237793 318.6562793 -342.09912109 317.97412109 C-333.43332266 309.82435997 -324.7232039 301.72415717 -315.9453125 293.6953125 C-307.22160169 285.71207582 -298.5617496 277.66312409 -289.94238281 269.56738281 C-285.29640385 265.20662462 -280.62484775 260.87513306 -275.93579102 256.56079102 C-271.57810394 252.54609176 -267.25552712 248.4947853 -262.9375 244.4375 C-257.34385237 239.18258064 -251.71332736 233.97325581 -246.046875 228.796875 C-239.98596363 223.24702862 -234.00138866 217.61400705 -228 212 C-213.83219433 198.74670726 -213.83219433 198.74670726 -207.0625 192.5625 C-202.33906732 188.24593097 -197.66277584 183.88197824 -193 179.5 C-187.38577278 174.22386786 -181.73512665 168.99316975 -176.046875 163.796875 C-169.98595548 158.24702116 -164.00183497 152.6135434 -158 147 C-150.34953816 139.84750873 -142.69093264 132.70498599 -134.98608398 125.61108398 C-130.61261603 121.57859602 -126.27290859 117.51083903 -121.9375 113.4375 C-116.34651193 108.1851192 -110.71909035 102.97786842 -105.0546875 97.8046875 C-100.88634862 93.9880608 -96.76449232 90.12158193 -92.63647461 86.26147461 C-88.60448605 82.49283318 -84.55944287 78.73904287 -80.5 75 C-75.17280028 70.09274273 -69.87493039 65.1547795 -64.58374023 60.20874023 C-60.59046914 56.47816409 -56.5829724 52.76372894 -52.5625 49.0625 C-47.68246351 44.56900106 -42.83541966 40.04145921 -38 35.5 C-32.65252535 30.47761523 -27.284287 25.47952501 -21.88745117 20.51025391 C-17.51424124 16.48109617 -13.16028131 12.43157721 -8.8125 8.375 C-8.164021 7.77034912 -7.51554199 7.16569824 -6.84741211 6.54272461 C-5.94261108 5.69786499 -5.94261108 5.69786499 -5.01953125 4.8359375 C-4.48432861 4.33626465 -3.94912598 3.8365918 -3.39770508 3.32177734 C-2.2468984 2.2334861 -1.11998523 1.11998523 0 0 Z " fill="#FEFEFE" transform="translate(1668,388)"/>
<path d="M0 0 C121.11 0 242.22 0 367 0 C366.67 0.66 366.34 1.32 366 2 C365.2343987 2.00173625 364.46879741 2.0034725 363.67999607 2.00526136 C318.35367739 2.10817971 273.02737359 2.21626834 227.70108349 2.33111694 C222.26467099 2.34488733 216.82825838 2.3586143 211.3918457 2.37231445 C209.76833535 2.37640691 209.76833535 2.37640691 208.1120268 2.38058204 C190.56255552 2.42471614 173.01307775 2.46532937 155.4635951 2.50465261 C137.47039286 2.54504805 119.4772027 2.58920115 101.48401827 2.63687855 C90.37180605 2.66620359 79.2595948 2.69256039 68.14736687 2.71517897 C60.53824649 2.73094723 52.92914092 2.75034913 45.32003696 2.77266841 C40.92306023 2.7854566 36.52609497 2.79658535 32.12910461 2.80341911 C28.11053022 2.80969991 24.09199531 2.82050181 20.07344251 2.8350333 C18.61314257 2.83949184 17.15283626 2.84223334 15.69252981 2.84316199 C13.72052313 2.84465705 11.74852471 2.85278713 9.77653599 2.8613348 C8.12760045 2.86532186 8.12760045 2.86532186 6.44535309 2.86938947 C4.05323163 2.72397294 4.05323163 2.72397294 3 4 C2.90006785 5.77678403 2.87130507 7.55758726 2.86938947 9.33717829 C2.86570876 10.50479377 2.86202805 11.67240925 2.85823581 12.87540701 C2.85925847 14.17711284 2.86028114 15.47881867 2.8613348 16.81997013 C2.8588901 18.20764938 2.85600705 19.59532792 2.85272202 20.98300543 C2.84490291 24.83128794 2.84337794 28.67955212 2.8427946 32.5278416 C2.84107402 36.70118486 2.8335935 40.87451823 2.82681805 45.04785579 C2.81572989 52.37370796 2.80837717 59.69955665 2.80341911 67.02541542 C2.79602991 77.91882282 2.78295075 88.8122181 2.76867336 99.70561838 C2.74482318 118.02708068 2.72563573 136.34854512 2.70907402 154.67001534 C2.69265254 172.81962949 2.67417805 190.96923962 2.65294075 209.1188488 C2.65162314 210.24587999 2.65030554 211.37291119 2.648948 212.53409484 C2.64224624 218.25734243 2.63550759 223.98058998 2.62875474 229.70383751 C2.58094771 270.278059 2.53777536 310.85228424 2.49731445 351.42651367 C2.45798822 390.85229769 2.41657145 430.27807861 2.37231445 469.70385742 C2.37095192 470.91839335 2.36958939 472.13292928 2.36818558 473.38426933 C2.35450061 485.58075389 2.34077303 497.77723841 2.32701423 509.97372289 C2.29898508 534.82101823 2.27124039 559.66831389 2.2436676 584.51560974 C2.2423994 585.65813495 2.2411312 586.80066015 2.23982458 587.97780733 C2.15511925 664.31853317 2.07704554 740.65926609 2 817 C1.34 817 0.68 817 0 817 C0 547.39 0 277.78 0 0 Z " fill="#E77C7D" transform="translate(2619,1579)"/>
<path d="M0 0 C0 3 0 3 -1.44946289 4.71411133 C-2.1171167 5.3305249 -2.78477051 5.94693848 -3.47265625 6.58203125 C-4.20806641 7.26716797 -4.94347656 7.95230469 -5.70117188 8.65820312 C-6.48041016 9.36912109 -7.25964844 10.08003906 -8.0625 10.8125 C-9.19075195 11.86147461 -9.19075195 11.86147461 -10.34179688 12.93164062 C-13.78385896 16.11741064 -17.25982394 19.24409598 -20.84375 22.26953125 C-23.26412615 24.32439683 -25.40990341 26.42081816 -27.4375 28.875 C-30.4626615 32.43480973 -33.68166326 35.70721242 -37.015625 38.9765625 C-39.62220275 41.63445083 -41.99854347 44.45939034 -44.359375 47.3359375 C-46.11294849 49.11456204 -47.71881589 50.01809901 -50 51 C-46.38307559 45.84862281 -42.48793143 41.35730133 -37.9765625 36.97265625 C-36.19129306 35.19091501 -34.5612931 33.36523386 -32.9375 31.4375 C-24.78308696 21.96785905 -15.63831615 12.95218046 -6 5 C-5.40316406 4.49855469 -4.80632812 3.99710938 -4.19140625 3.48046875 C-2.79972739 2.31377262 -1.40083382 1.1556879 0 0 Z " fill="#FEEBE7" transform="translate(1397,1476)"/>
<path d="M0 0 C3.08549803 1.39190245 5.37046979 3.04434111 7.875 5.3125 C10.36775127 7.55317529 12.87803753 9.72487111 15.5 11.8125 C16.325 12.534375 17.15 13.25625 18 14 C18 14.66 18 15.32 18 16 C18.53625 16.20625 19.0725 16.4125 19.625 16.625 C22.44685487 18.25870545 24.33740731 20.27586098 26.53515625 22.66015625 C28.07501668 24.25108699 28.07501668 24.25108699 31 25 C32.54296875 26.6015625 32.54296875 26.6015625 34.1875 28.625 C37.27123772 32.27060518 40.56329694 35.37179274 44.19921875 38.45703125 C46.2399921 40.20563314 48.13921291 42.06168011 50 44 C47 44 47 44 45.23828125 42.49609375 C44.60277344 41.81675781 43.96726562 41.13742187 43.3125 40.4375 C40.04582829 37.04587364 36.68220762 33.90460696 33.1171875 30.83203125 C26.40021853 25.01974629 19.87816508 18.98366172 13.34545898 12.96606445 C9.76930652 9.68020113 6.13184081 6.47810122 2.42578125 3.33984375 C1 2 1 2 0 0 Z " fill="#EC8485" transform="translate(2149,819)"/>
<path d="M0 0 C0.74334595 0.00141495 1.48669189 0.0028299 2.25256348 0.00428772 C4.59550229 0.00982516 6.93834073 0.02236534 9.28125 0.03515625 C10.88281111 0.04017936 12.48437373 0.04474083 14.0859375 0.04882812 C17.98441288 0.05977398 21.8828145 0.07699429 25.78125 0.09765625 C25.78125 0.42765625 25.78125 0.75765625 25.78125 1.09765625 C24.8526416 1.1227124 23.9240332 1.14776855 22.96728516 1.17358398 C19.52689196 1.26863557 16.08667287 1.36787332 12.64648438 1.4699707 C11.15662359 1.51332214 9.66671305 1.55499709 8.17675781 1.5949707 C6.03695673 1.6526684 3.89740615 1.7163638 1.7578125 1.78125 C0.46955566 1.81790771 -0.81870117 1.85456543 -2.14599609 1.89233398 C-5.1315182 1.892963 -5.1315182 1.892963 -7.21875 3.09765625 C-8.70479431 3.29366768 -10.19739088 3.44139567 -11.69140625 3.5625 C-12.59181641 3.64048828 -13.49222656 3.71847656 -14.41992188 3.79882812 C-16.29999574 3.95411068 -18.18020158 4.10780518 -20.06054688 4.25976562 C-25.2310989 4.71049412 -30.15647678 5.40019766 -35.18896484 6.68530273 C-38.55483251 7.36908316 -41.79600089 7.22211985 -45.21875 7.09765625 C-42.01665317 4.96292503 -40.26978603 4.61530286 -36.51953125 4.0625 C-35.39224609 3.89298828 -34.26496094 3.72347656 -33.10351562 3.54882812 C-31.92466797 3.37931641 -30.74582031 3.20980469 -29.53125 3.03515625 C-27.79198242 2.77508789 -27.79198242 2.77508789 -26.01757812 2.50976562 C-22.75290881 2.02535477 -19.48806508 1.54967267 -16.21875 1.09765625 C-14.93701904 0.91605957 -13.65528809 0.73446289 -12.3347168 0.54736328 C-8.21095138 0.03986592 -4.15053368 -0.03049763 0 0 Z " fill="#EE8989" transform="translate(1688.21875,1565.90234375)"/>
<path d="M0 0 C0 3 0 3 -1.25 4.578125 C-2.11625 5.40570312 -2.11625 5.40570312 -3 6.25 C-3.96292969 7.17425781 -3.96292969 7.17425781 -4.9453125 8.1171875 C-7.55436306 10.50799048 -10.22712711 12.81790393 -12.91015625 15.125 C-15.14050773 17.12606301 -17.22200128 19.22860559 -19.3125 21.375 C-23.45734314 25.58460631 -27.89169306 29.29082177 -32.51953125 32.95703125 C-34.82845927 34.85871527 -36.92543161 36.84805843 -39 39 C-39.66 38.67 -40.32 38.34 -41 38 C-39.83687329 36.80903249 -38.66923328 35.62247296 -37.5 34.4375 C-36.8503125 33.77621094 -36.200625 33.11492187 -35.53125 32.43359375 C-33.46797113 30.44991669 -31.37464277 28.5627746 -29.21484375 26.6875 C-25.06346212 23.08199653 -21.05556566 19.34158179 -17.0625 15.5625 C-11.45557236 10.27859717 -5.81479592 5.055642 0 0 Z " fill="#FEEDEB" transform="translate(765,1224)"/>
<path d="M0 0 C0 4.10202215 -1.4911355 5.81306402 -4 9 C-5.15435547 9.43699219 -5.15435547 9.43699219 -6.33203125 9.8828125 C-9.68115439 11.28522717 -11.49316043 13.19990314 -14 15.8125 C-14.825 16.66457031 -15.65 17.51664063 -16.5 18.39453125 C-18.23305733 20.20070194 -19.96194404 22.01088014 -21.6875 23.82421875 C-24 26 -24 26 -26 26 C-26.268125 26.598125 -26.53625 27.19625 -26.8125 27.8125 C-28.03585242 30.06604393 -28.97960332 31.42858036 -31 33 C-33.6875 33.6875 -33.6875 33.6875 -36 34 C-35.27425781 33.27554687 -34.54851562 32.55109375 -33.80078125 31.8046875 C-32.06369958 30.06518313 -30.33104865 28.32122718 -28.60546875 26.5703125 C-24.29580965 22.21191735 -19.94966598 17.98850285 -15.29296875 14.00390625 C-10.08885042 9.45584372 -5.06482727 4.70195093 0 0 Z " fill="#EE8282" transform="translate(1071,1172)"/>
<path d="M0 0 C0 4.9712933 -3.65055105 7.56625284 -7 11 C-12.95194967 16.81667808 -19.03521902 22.40957617 -26 27 C-26.66 26.67 -27.32 26.34 -28 26 C-23.95281515 21.83898808 -19.79504254 17.89775405 -15.3984375 14.109375 C-10.17098534 9.51194151 -5.10160658 4.73609513 0 0 Z " fill="#F07E81" transform="translate(1491,785)"/>
<path d="M0 0 C0 3 0 3 -1.94018555 5.3125 C-2.8300415 6.199375 -3.71989746 7.08625 -4.63671875 8 C-5.11317337 8.47695313 -5.58962799 8.95390625 -6.08052063 9.4453125 C-7.09167877 10.45412892 -8.10653461 11.4592505 -9.12475586 12.4609375 C-10.67279374 13.98551659 -12.20722391 15.52282749 -13.74023438 17.0625 C-22.54011785 25.8125453 -22.54011785 25.8125453 -27 28 C-27.66 27.67 -28.32 27.34 -29 27 C-20.43258758 18.94146177 -11.84846521 10.9047906 -3.16015625 2.9765625 C-1.55789704 1.5114686 -1.55789704 1.5114686 0 0 Z " fill="#FFEDEB" transform="translate(1193,829)"/>
<path d="M0 0 C0.91995744 2.9720427 1.01877741 4.95969389 0.328125 7.984375 C0.15974121 8.7475 -0.00864258 9.510625 -0.18212891 10.296875 C-0.36952637 11.10640625 -0.55692383 11.9159375 -0.75 12.75 C-1.12937037 14.45273245 -1.50694361 16.1558662 -1.8828125 17.859375 C-2.07262695 18.71595703 -2.26244141 19.57253906 -2.45800781 20.45507812 C-3.54683604 25.56766616 -4.40625535 30.72356065 -5.2890625 35.875 C-6 39 -6 39 -8 42 C-6.42171957 27.70263611 -3.59844323 13.9343972 0 0 Z " fill="#EE898A" transform="translate(1447,1757)"/>
<path d="M0 0 C0 3 0 3 -2.34375 5.671875 C-3.38750516 6.70638744 -4.44015977 7.73197273 -5.5 8.75 C-6.04954346 9.28786133 -6.59908691 9.82572266 -7.1652832 10.37988281 C-11.31282203 14.41138532 -15.59843354 18.24856511 -20 22 C-21.66970498 23.47573611 -23.33633931 24.95495323 -25 26.4375 C-26.1446875 27.45650391 -26.1446875 27.45650391 -27.3125 28.49609375 C-27.869375 28.99238281 -28.42625 29.48867187 -29 30 C-29.66 29.67 -30.32 29.34 -31 29 C-23.06598695 21.5258226 -15.13039189 14.06499125 -6.99609375 6.80859375 C-4.57629732 4.61609718 -2.27033922 2.34601719 0 0 Z " fill="#FEEAE8" transform="translate(938,1064)"/>
<path d="M0 0 C0 3 0 3 -1.26586914 4.51464844 C-1.84973389 5.0409082 -2.43359863 5.56716797 -3.03515625 6.109375 C-3.68033203 6.69976563 -4.32550781 7.29015625 -4.99023438 7.8984375 C-5.67408203 8.50945313 -6.35792969 9.12046875 -7.0625 9.75 C-8.38789444 10.9518297 -9.712117 12.15495306 -11.03515625 13.359375 C-11.69394775 13.95741943 -12.35273926 14.55546387 -13.03149414 15.17163086 C-15.58121595 17.53983954 -18.02408426 20.00443594 -20.47094727 22.47802734 C-23.1699159 25.16449876 -26.08120462 27.55774264 -29 30 C-29.66 29.67 -30.32 29.34 -31 29 C-26.12501116 24.0234489 -21.19113137 19.2183364 -15.90234375 14.68359375 C-13.39961473 12.46865287 -11.08272119 10.09461466 -8.7421875 7.7109375 C-5.9604329 4.97907984 -2.98937336 2.50131241 0 0 Z " fill="#FFECE9" transform="translate(1380,656)"/>
<path d="M0 0 C0 3 0 3 -2.375 5.6875 C-5 8 -5 8 -7 8 C-7.25910156 8.598125 -7.51820312 9.19625 -7.78515625 9.8125 C-9.0916304 12.16499365 -10.34116113 13.34096193 -12.4375 15 C-14.53419366 16.70841706 -16.00960165 18.01382638 -17.5625 20.25 C-19.62096586 22.75595843 -21.93492465 23.18264657 -25 24 C-21.77951396 19.87375226 -18.38180331 16.46944946 -14.40234375 13.078125 C-11.38053461 10.46413725 -8.44006365 7.76770522 -5.5 5.0625 C-4.95915771 4.56532471 -4.41831543 4.06814941 -3.86108398 3.5559082 C-2.57335688 2.37136503 -1.28657556 1.18579381 0 0 Z " fill="#EE8082" transform="translate(1337,927)"/>
<path d="M0 0 C0.33 0.99 0.66 1.98 1 3 C0.05898437 3.78503906 -0.88203125 4.57007813 -1.8515625 5.37890625 C-3.10962405 6.4398089 -4.36742249 7.50102361 -5.625 8.5625 C-6.24246094 9.07619141 -6.85992188 9.58988281 -7.49609375 10.11914062 C-11.25938079 13.30803122 -14.53184139 16.60475625 -17.6171875 20.45703125 C-19.77419348 22.86385996 -22.23380564 24.35345574 -25 26 C-25.66 25.67 -26.32 25.34 -27 25 C-26.22398438 24.28457031 -25.44796875 23.56914063 -24.6484375 22.83203125 C-16.41582385 15.23903132 -8.2029994 7.62497696 0 0 Z " fill="#EF8282" transform="translate(1659,630)"/>
<path d="M0 0 C0 5.6847242 -6.16207622 10.06926725 -10 14 C-15.54583316 19.48102376 -15.54583316 19.48102376 -18 21 C-18.99 20.67 -19.98 20.34 -21 20 C-15.34576836 14.25222409 -9.7063181 8.56732661 -3.55859375 3.33984375 C-2.32496821 2.27935864 -1.15031749 1.15031749 0 0 Z " fill="#F07F80" transform="translate(946,1287)"/>
<path d="M0 0 C0.33 0.99 0.66 1.98 1 3 C-7.54821969 10.80967865 -16.1959196 18.47984799 -25 26 C-25.66 25.67 -26.32 25.34 -27 25 C-10.81954573 9.75732457 -10.81954573 9.75732457 -2.72265625 2.5390625 C-1.7972428 1.71227588 -0.8774868 0.8774868 0 0 Z " fill="#ED8183" transform="translate(906,1324)"/>
<path d="M0 0 C0.66 0.33 1.32 0.66 2 1 C-2.92799975 6.87634335 -7.91546335 12.2844841 -14 17 C-14.928125 17.7425 -15.85625 18.485 -16.8125 19.25 C-17.534375 19.8275 -18.25625 20.405 -19 21 C-19.66 20.67 -20.32 20.34 -21 20 C-16.43826336 15.32907285 -11.78232678 10.86643388 -6.83203125 6.609375 C-4.43948191 4.50760458 -2.21633026 2.28559058 0 0 Z " fill="#EF8081" transform="translate(1177,1074)"/>
<path d="M0 0 C0.33 0.66 0.66 1.32 1 2 C0.60167969 2.51949219 0.20335937 3.03898437 -0.20703125 3.57421875 C-3.02391206 7.28208376 -5.69773956 10.94363637 -8 15 C-10.06972424 18.59952041 -12.24070258 21.88466421 -15 25 C-15.66 25 -16.32 25 -17 25 C-15.61323539 21.08608566 -13.78745314 18.07587024 -11.3125 14.75 C-10.60738281 13.79996094 -9.90226562 12.84992188 -9.17578125 11.87109375 C-6.15453384 7.88434896 -3.10116017 3.92490585 0 0 Z " fill="#ED8687" transform="translate(1498,1660)"/>
<path d="M0 0 C2.68834479 0.07906896 4.44883531 0.45194046 6.38671875 2.37890625 C7.37527198 3.58954541 8.35656744 4.80613328 9.33203125 6.02734375 C13.05613428 10.43172789 17.52752237 14.17322117 22.4375 17.1875 C25 19 25 19 25.875 21.25 C25.91625 21.8275 25.9575 22.405 26 23 C22.52409353 20.88054484 19.63863708 18.74785977 16.8125 15.8125 C12.96763431 11.82108113 8.70142569 8.44443517 4.35546875 5.015625 C2 3 2 3 0 0 Z " fill="#ED8486" transform="translate(2704,1320)"/>
<path d="M0 0 C0.29132812 0.75023437 0.58265625 1.50046875 0.8828125 2.2734375 C2.27654576 5.67492638 4.10516017 7.2332392 6.875 9.625 C8.17050781 10.75808594 8.17050781 10.75808594 9.4921875 11.9140625 C11.92150855 13.98848935 11.92150855 13.98848935 14.3203125 15.6484375 C14.87460938 16.09445312 15.42890625 16.54046875 16 17 C16 17.66 16 18.32 16 19 C16.66 19 17.32 19 18 19 C17.67 19.66 17.34 20.32 17 21 C12.15790248 16.82725126 7.40028433 12.56766197 2.6875 8.25 C2.17219727 7.77844482 1.65689453 7.30688965 1.12597656 6.82104492 C-1.29871007 4.59391063 -3.69933469 2.35563001 -6 0 C-3 -1 -3 -1 0 0 Z " fill="#EF8384" transform="translate(2091,762)"/>
<path d="M0 0 C0.33 0.66 0.66 1.32 1 2 C-11.375 16.48138298 -11.375 16.48138298 -15.9375 17.9375 C-16.618125 17.958125 -17.29875 17.97875 -18 18 C-14.24011823 13.39414483 -10.36303633 9.42876079 -5.8359375 5.578125 C-3.7854109 3.81554469 -1.87227771 1.95028928 0 0 Z " fill="#F07E80" transform="translate(1367,899)"/>
<path d="M0 0 C0 3 0 3 -1.90625 5.234375 C-2.7621875 6.06453125 -3.618125 6.8946875 -4.5 7.75 C-5.41136719 8.63429688 -6.32273437 9.51859375 -7.26171875 10.4296875 C-12.32726807 15.18451126 -17.52377846 19.72170192 -23 24 C-23.66 23.67 -24.32 23.34 -25 23 C-16.6839571 15.31436681 -8.35291299 7.64554919 0 0 Z " fill="#FEEAE8" transform="translate(627,1352)"/>
<path d="M0 0 C0 3.74016583 -0.9341591 4.45276193 -3.375 7.1875 C-4.00148438 7.90292969 -4.62796875 8.61835937 -5.2734375 9.35546875 C-7 11 -7 11 -9 11 C-9.226875 11.598125 -9.45375 12.19625 -9.6875 12.8125 C-11.36710046 15.61183411 -13.09105125 16.58100061 -16 18 C-16.99 18 -17.98 18 -19 18 C-18.49549316 17.52578613 -17.99098633 17.05157227 -17.47119141 16.56298828 C-15.1888209 14.41731815 -12.90690525 12.27116491 -10.625 10.125 C-9.8309375 9.37863281 -9.036875 8.63226562 -8.21875 7.86328125 C-7.45820312 7.14785156 -6.69765625 6.43242188 -5.9140625 5.6953125 C-5.2123291 5.03547363 -4.5105957 4.37563477 -3.78759766 3.69580078 C-2.50784464 2.48176576 -1.24732691 1.24732691 0 0 Z " fill="#EF8282" transform="translate(1419,851)"/>
<path d="M0 0 C0 3 0 3 -1.40527344 4.76171875 C-2.05012695 5.39722656 -2.69498047 6.03273438 -3.359375 6.6875 C-4.06320312 7.38617187 -4.76703125 8.08484375 -5.4921875 8.8046875 C-6.23726562 9.52914063 -6.98234375 10.25359375 -7.75 11 C-8.84441406 12.08667969 -8.84441406 12.08667969 -9.9609375 13.1953125 C-13.1792331 16.36679652 -16.33181606 19.34928343 -20 22 C-20.66 21.67 -21.32 21.34 -22 21 C-17.45962576 16.35094659 -12.8260444 11.91196505 -7.8984375 7.67578125 C-5.13597706 5.23731309 -2.57258941 2.63690415 0 0 Z " fill="#FEE9E7" transform="translate(720,1265)"/>
<path d="M0 0 C0 3 0 3 -1.56054688 4.90112305 C-2.62885742 5.94586792 -2.62885742 5.94586792 -3.71875 7.01171875 C-4.48574219 7.76904297 -5.25273438 8.52636719 -6.04296875 9.30664062 C-6.85378906 10.09232422 -7.66460938 10.87800781 -8.5 11.6875 C-9.31082031 12.48478516 -10.12164063 13.28207031 -10.95703125 14.10351562 C-12.96482203 16.0758748 -14.9792687 18.04091492 -17 20 C-17.66 19.34 -18.32 18.68 -19 18 C-14.41731215 13.30762016 -9.75053386 8.80319423 -4.76171875 4.54296875 C-3.10184189 3.08919634 -1.54066019 1.57858414 0 0 Z " fill="#FEECEA" transform="translate(847,1148)"/>
<path d="M0 0 C3.91448624 1.3138587 6.10844132 2.8329334 8.875 5.875 C11.40754443 8.54184603 13.57404016 10.50202808 16.875 12.125 C20 14 20 14 21.4375 17.25 C21.623125 18.1575 21.80875 19.065 22 20 C14.44253038 13.59258011 6.89510357 7.12494035 0 0 Z " fill="#EB8887" transform="translate(2602,1228)"/>
<path d="M0 0 C0 3 0 3 -2.6328125 5.7421875 C-3.78934488 6.79479186 -4.95379898 7.83874171 -6.125 8.875 C-6.97964844 9.65037109 -6.97964844 9.65037109 -7.8515625 10.44140625 C-11.48996034 13.72423339 -15.21775751 16.88453582 -19 20 C-19.66 19.67 -20.32 19.34 -21 19 C-19.37660195 17.29115995 -17.70680947 15.62553283 -16 14 C-15.34 14 -14.68 14 -14 14 C-14 13.34 -14 12.68 -14 12 C-12.4609375 10.44921875 -12.4609375 10.44921875 -10.375 8.6875 C-9.65054687 8.07132813 -8.92609375 7.45515625 -8.1796875 6.8203125 C-7.46039062 6.21960938 -6.74109375 5.61890625 -6 5 C-5.38382813 4.48179687 -4.76765625 3.96359375 -4.1328125 3.4296875 C-2.76024877 2.28041165 -1.3809017 1.1392439 0 0 Z " fill="#ED8383" transform="translate(1268,991)"/>
<path d="M0 0 C0 3 0 3 -1.875 5.1875 C-4 7 -4 7 -6 7 C-6.061875 7.598125 -6.12375 8.19625 -6.1875 8.8125 C-7.341137 11.91844578 -9.12960924 12.37760522 -12 14 C-14.39600769 15.92970392 -16.70268552 17.95426463 -19 20 C-19.66 19.67 -20.32 19.34 -21 19 C-20.10861328 18.19949219 -20.10861328 18.19949219 -19.19921875 17.3828125 C-12.77860982 11.61125424 -6.3832081 5.8128454 0 0 Z " fill="#EC8384" transform="translate(1579,704)"/>
<path d="M0 0 C1 2 1 2 0.28735352 4.24658203 C-0.09493408 5.15778809 -0.47722168 6.06899414 -0.87109375 7.0078125 C-1.28037109 7.99394531 -1.68964844 8.98007813 -2.11132812 9.99609375 C-2.7677832 11.54490234 -2.7677832 11.54490234 -3.4375 13.125 C-4.0881543 14.68541016 -4.0881543 14.68541016 -4.75195312 16.27734375 C-5.82775422 18.85453757 -6.91069378 21.42849195 -8 24 C-8.33 24 -8.66 24 -9 24 C-9 22.02 -9 20.04 -9 18 C-8.34 18 -7.68 18 -7 18 C-6.87496094 17.28070312 -6.74992187 16.56140625 -6.62109375 15.8203125 C-6.00321999 13.01462158 -5.14025662 10.534822 -4.0625 7.875 C-3.72347656 7.02679687 -3.38445312 6.17859375 -3.03515625 5.3046875 C-2 3 -2 3 0 0 Z " fill="#ED8181" transform="translate(1274,1639)"/>
<path d="M0 0 C0.33 0.66 0.66 1.32 1 2 C-3.24197704 7.65596939 -8.4045986 11.71924631 -14 16 C-14.66 15.67 -15.32 15.34 -16 15 C-10.85228904 9.74723372 -5.66129431 4.69766975 0 0 Z " fill="#ED8586" transform="translate(981,1255)"/>
<path d="M0 0 C0.33 0.99 0.66 1.98 1 3 C-4.94 8.445 -4.94 8.445 -11 14 C-11.99 13.67 -12.98 13.34 -14 13 C-4.58997722 3.40546697 -4.58997722 3.40546697 0 0 Z " fill="#EF7F80" transform="translate(1539,741)"/>
<path d="M0 0 C0 4.03642603 -1.46826873 5.08573345 -4.125 8.0625 C-5.27355469 9.37927734 -5.27355469 9.37927734 -6.4453125 10.72265625 C-9.22606639 13.20152401 -11.42234213 14.08225298 -15 15 C-10 10 -5 5 0 0 Z " fill="#EF8284" transform="translate(1241,1015)"/>
<path d="M0 0 C3.4645173 1.21726284 5.43854318 2.43854318 8 5 C8.66 5.103125 9.32 5.20625 10 5.3125 C12 6 12 6 13.75 9.0625 C14.1625 10.031875 14.575 11.00125 15 12 C10.6811346 12 8.78127223 9.38440717 5.8125 6.5625 C5.25369141 6.04623047 4.69488281 5.52996094 4.11914062 4.99804688 C2.72081232 3.69191604 1.357217 2.34880015 0 1 C0 0.67 0 0.34 0 0 Z " fill="#ED8488" transform="translate(2488,1125)"/>
<path d="M0 0 C0.33 0.99 0.66 1.98 1 3 C-0.5675518 4.7021698 -2.15459784 6.38640554 -3.75 8.0625 C-4.63171875 9.00222656 -5.5134375 9.94195313 -6.421875 10.91015625 C-9 13 -9 13 -11.328125 12.80859375 C-11.87984375 12.54175781 -12.4315625 12.27492188 -13 12 C-12.14535156 11.21753906 -11.29070312 10.43507813 -10.41015625 9.62890625 C-9.29425993 8.60678273 -8.17837511 7.58464667 -7.0625 6.5625 C-6.21655273 5.7880957 -6.21655273 5.7880957 -5.35351562 4.99804688 C-2.64001674 2.53775333 -2.64001674 2.53775333 0 0 Z " fill="#F07F82" transform="translate(1303,958)"/>
<path d="M0 0 C0 3 0 3 -2.44921875 5.55859375 C-3.52111723 6.52663126 -4.60093236 7.48595718 -5.6875 8.4375 C-6.21794922 8.91509766 -6.74839844 9.39269531 -7.29492188 9.88476562 C-10.44464312 12.70212365 -13.67463793 15.39030027 -17 18 C-17.66 17.67 -18.32 17.34 -19 17 C-12.74987827 11.23223578 -6.510703 5.47490934 0 0 Z " fill="#FEE9E8" transform="translate(1279,750)"/>
<path d="M0 0 C0.66 0.66 1.32 1.32 2 2 C0.58510266 3.27280294 -0.83199666 4.5431583 -2.25 5.8125 C-3.03890625 6.52019531 -3.8278125 7.22789062 -4.640625 7.95703125 C-6.7016833 9.74168935 -8.79605523 11.39759062 -11 13 C-11.66 12.67 -12.32 12.34 -13 12 C-11.21135158 10.18443212 -9.41928379 8.37248378 -7.625 6.5625 C-7.11710937 6.04623047 -6.60921875 5.52996094 -6.0859375 4.99804688 C-2.2265625 1.11328125 -2.2265625 1.11328125 0 0 Z " fill="#ED7E7E" transform="translate(1613,673)"/>
<path d="M0 0 C0 3.66910381 -1.16751942 4.55727978 -3.66601562 7.07617188 C-4.16810547 7.56666016 -4.67019531 8.05714844 -5.1875 8.5625 C-5.67025391 9.05685547 -6.15300781 9.55121094 -6.65039062 10.06054688 C-9.55793791 12.94467767 -12.07789565 14.78823467 -16 16 C-11.17917294 10.03739811 -5.77505724 5.03320206 0 0 Z " fill="#FEEBE8" transform="translate(1410,628)"/>
<path d="M0 0 C0.66 0.66 1.32 1.32 2 2 C1.23816406 2.85271484 1.23816406 2.85271484 0.4609375 3.72265625 C-3.74420802 8.43966405 -7.90435493 13.18761705 -12 18 C-12.66 17.67 -13.32 17.34 -14 17 C-13.24074219 16.10796875 -12.48148438 15.2159375 -11.69921875 14.296875 C-10.69525246 13.11463432 -9.69134954 11.93233982 -8.6875 10.75 C-8.18798828 10.16347656 -7.68847656 9.57695313 -7.17382812 8.97265625 C-4.68918088 6.04373434 -2.2565687 3.11144626 0 0 Z " fill="#FEE5E2" transform="translate(1342,1532)"/>
<path d="M0 0 C0.33 0.66 0.66 1.32 1 2 C-2.54743432 5.65829164 -6.26915157 9.02911477 -10.1328125 12.3515625 C-11.82403463 13.84464982 -13.42498825 15.38585753 -15 17 C-15.66 16.67 -16.32 16.34 -17 16 C-11.5184171 10.41915303 -6.03331362 4.98404168 0 0 Z " fill="#EC8182" transform="translate(815,1408)"/>
<path d="M0 0 C1.32 0 2.64 0 4 0 C4 0.99 4 1.98 4 3 C4.55171875 3.22429688 5.1034375 3.44859375 5.671875 3.6796875 C8.71211744 5.40385183 10.81425673 7.62515822 13.25 10.125 C14.14203125 11.03507813 15.0340625 11.94515625 15.953125 12.8828125 C16.62859375 13.58148437 17.3040625 14.28015625 18 15 C15 15 15 15 13.203125 13.4609375 C12.55859375 12.77257812 11.9140625 12.08421875 11.25 11.375 C8.60140698 8.61359654 5.93691457 6.01589814 3 3.5625 C2.01 2.716875 1.02 1.87125 0 1 C0 0.67 0 0.34 0 0 Z " fill="#EE8486" transform="translate(1937,628)"/>
<path d="M0 0 C0 3 0 3 -2.046875 5.4453125 C-2.93890625 6.32960938 -3.8309375 7.21390625 -4.75 8.125 C-5.63171875 9.01445312 -6.5134375 9.90390625 -7.421875 10.8203125 C-9.79524738 12.82689097 -10.97723274 13.64687298 -14 14 C-9.72706118 8.76564995 -5.18419194 4.32893185 0 0 Z " fill="#FEECEA" transform="translate(1631,423)"/>
<path d="M0 0 C0 3 0 3 -1.79296875 5.12109375 C-2.97826172 6.26771484 -2.97826172 6.26771484 -4.1875 7.4375 C-5.00476563 8.22898437 -5.82203125 9.02046875 -6.6640625 9.8359375 C-9.0212043 12.01964412 -11.41855036 14.08473091 -14 16 C-14.66 15.67 -15.32 15.34 -16 15 C-11.70328082 10.5824356 -7.27195049 6.40403459 -2.6015625 2.3828125 C-1.71147181 1.61429517 -0.83152881 0.83152881 0 0 Z " fill="#FFECEC" transform="translate(447,1520)"/>
<path d="M0 0 C0 4.13781054 -1.71509607 5.20919996 -4.5 8.1875 C-5.3353125 9.08855469 -6.170625 9.98960937 -7.03125 10.91796875 C-8.00578125 11.94857422 -8.00578125 11.94857422 -9 13 C-10.32 12.67 -11.64 12.34 -13 12 C-12.31292969 11.38511719 -11.62585937 10.77023437 -10.91796875 10.13671875 C-10.01691406 9.32847656 -9.11585937 8.52023437 -8.1875 7.6875 C-7.29417969 6.88699219 -6.40085937 6.08648438 -5.48046875 5.26171875 C-3.60073214 3.54775419 -1.77407253 1.82122396 0 0 Z " fill="#EF8281" transform="translate(1457,816)"/>
<path d="M0 0 C2 3 2 3 2 5 C2.57234375 5.25523438 3.1446875 5.51046875 3.734375 5.7734375 C6.24173733 7.13087159 8.1330456 8.71974104 10.25 10.625 C10.95640625 11.25664063 11.6628125 11.88828125 12.390625 12.5390625 C12.92171875 13.02117187 13.4528125 13.50328125 14 14 C9.61381654 14 7.44824189 11.26543217 4.3125 8.5 C3.70599609 7.97535156 3.09949219 7.45070313 2.47460938 6.91015625 C0.97736565 5.61333098 -0.51207472 4.30750638 -2 3 C-1.34 2.01 -0.68 1.02 0 0 Z " fill="#EE8688" transform="translate(1990,1462)"/>
<path d="M0 0 C0.66 0 1.32 0 2 0 C2 0.99 2 1.98 2 3 C0.6444073 3.94891489 -0.72171215 4.88578543 -2.1328125 5.75 C-5.70419792 8.14088563 -8.81647735 11.12351761 -12 14 C-12.66 13.67 -13.32 13.34 -14 13 C-13.15695312 12.22914062 -12.31390625 11.45828125 -11.4453125 10.6640625 C-10.33851968 9.65106568 -9.23175006 8.63804353 -8.125 7.625 C-7.56941406 7.11710937 -7.01382813 6.60921875 -6.44140625 6.0859375 C-4.25988219 4.0883974 -2.09183907 2.09183907 0 0 Z " fill="#ED8688" transform="translate(961,1273)"/>
<path d="M0 0 C-1.24879091 3.74637273 -3.15795107 5.29013939 -6 8 C-6.680625 8.78375 -7.36125 9.5675 -8.0625 10.375 C-8.701875 10.91125 -9.34125 11.4475 -10 12 C-12.12109375 11.6015625 -12.12109375 11.6015625 -14 11 C-13.46890625 10.54109375 -12.9378125 10.0821875 -12.390625 9.609375 C-7.8947499 5.70720627 -7.8947499 5.70720627 -3.625 1.5625 C-2 0 -2 0 0 0 Z " fill="#F08283" transform="translate(1434,839)"/>
<path d="M0 0 C1.28107865 3.68986738 0.76762501 6.63016688 0.125 10.4375 C-0.05804687 11.54996094 -0.24109375 12.66242188 -0.4296875 13.80859375 C-0.91910706 16.54733195 -1.43971898 19.27499685 -2 22 C-2.33 22 -2.66 22 -3 22 C-3 18.37 -3 14.74 -3 11 C-2.34 11 -1.68 11 -1 11 C-1.01160156 10.28972656 -1.02320313 9.57945313 -1.03515625 8.84765625 C-1.04417969 7.92855469 -1.05320312 7.00945312 -1.0625 6.0625 C-1.07410156 5.14597656 -1.08570313 4.22945312 -1.09765625 3.28515625 C-1 1 -1 1 0 0 Z " fill="#EC8584" transform="translate(1242,1740)"/>
<path d="M0 0 C0 3 0 3 -2.01171875 5.41015625 C-2.89472656 6.28542969 -3.77773438 7.16070313 -4.6875 8.0625 C-5.55761719 8.94035156 -6.42773438 9.81820313 -7.32421875 10.72265625 C-9.87182974 12.89091494 -11.8409977 13.9925344 -15 15 C-12.06334264 10.96209613 -8.68524643 7.85773305 -4.90234375 4.6484375 C-3.18778129 3.16271808 -1.58115759 1.62548911 0 0 Z " fill="#FEE7E5" transform="translate(601,1376)"/>
<path d="M0 0 C0 3 0 3 -1.19335938 4.44213867 C-1.73798828 4.9291626 -2.28261719 5.41618652 -2.84375 5.91796875 C-3.72353516 6.71557617 -3.72353516 6.71557617 -4.62109375 7.52929688 C-5.24113281 8.07650391 -5.86117187 8.62371094 -6.5 9.1875 C-7.12003906 9.74630859 -7.74007812 10.30511719 -8.37890625 10.88085938 C-9.91268445 12.26125975 -11.45550825 13.63159728 -13 15 C-13.66 14.67 -14.32 14.34 -15 14 C-13.44073252 12.41348318 -11.87743482 10.83092685 -10.3125 9.25 C-9.44238281 8.36828125 -8.57226562 7.4865625 -7.67578125 6.578125 C-5.21997532 4.21194702 -2.69858952 2.08107444 0 0 Z " fill="#FFEAE8" transform="translate(790,1201)"/>
<path d="M0 0 C0.33 1.32 0.66 2.64 1 4 C0.01 4.5259375 0.01 4.5259375 -1 5.0625 C-5.01964353 7.65851978 -8.45965414 10.79348328 -12 14 C-12.66 13.67 -13.32 13.34 -14 13 C-13.15695312 12.22914062 -12.31390625 11.45828125 -11.4453125 10.6640625 C-10.33851968 9.65106568 -9.23175006 8.63804353 -8.125 7.625 C-7.56941406 7.11710937 -7.01382813 6.60921875 -6.44140625 6.0859375 C-4.25988219 4.0883974 -2.09183907 2.09183907 0 0 Z " fill="#EC8687" transform="translate(1011,1227)"/>
<path d="M0 0 C0.66 0.33 1.32 0.66 2 1 C-2.29 5.29 -6.58 9.58 -11 14 C-11.99 13.67 -12.98 13.34 -14 13 C-13.15695312 12.22914063 -12.31390625 11.45828125 -11.4453125 10.6640625 C-10.33851968 9.65106568 -9.23175006 8.63804353 -8.125 7.625 C-7.56941406 7.11710938 -7.01382813 6.60921875 -6.44140625 6.0859375 C-4.25988219 4.0883974 -2.09183907 2.09183907 0 0 Z " fill="#FFE7E6" transform="translate(1027,982)"/>
<path d="M0 0 C0.66 0.33 1.32 0.66 2 1 C-1.9050849 4.55007718 -4.97734643 5.81819916 -10 7 C-10.66 6.34 -11.32 5.68 -12 5 C-10.04578965 4.13644222 -8.08648653 3.28440066 -6.125 2.4375 C-5.03445313 1.96183594 -3.94390625 1.48617188 -2.8203125 0.99609375 C-1.88960937 0.66738281 -0.95890625 0.33867188 0 0 Z " fill="#F18383" transform="translate(1604,1584)"/>
<path d="M0 0 C0 4.08735515 -1.69711865 5.39489363 -4.33984375 8.34375 C-6.38334386 10.38244188 -8.35924173 11.82632966 -11 13 C-11.66 12.67 -12.32 12.34 -13 12 C-8.71 8.04 -4.42 4.08 0 0 Z " fill="#EC8386" transform="translate(1289,971)"/>
<path d="M0 0 C0.66 0.33 1.32 0.66 2 1 C-1.42166518 5.70478962 -5.57905197 9.27653164 -10 13 C-10.66 12.67 -11.32 12.34 -12 12 C-8.04 8.04 -4.08 4.08 0 0 Z " fill="#FEEAE7" transform="translate(1472,570)"/>
<path d="M0 0 C0 3.6026412 -1.17803615 4.96901452 -3.48828125 7.63671875 C-5.72852527 9.65699049 -8.10395457 10.32650106 -11 11 C-7.6381774 6.74828319 -4.25171681 3.3618226 0 0 Z " fill="#EF8183" transform="translate(1387,881)"/>
<path d="M0 0 C0 3.96130371 -1.34877125 4.82914401 -4 7.6875 C-4.7425 8.49574219 -5.485 9.30398438 -6.25 10.13671875 C-6.8275 10.75160156 -7.405 11.36648438 -8 12 C-8.99 11.34 -9.98 10.68 -11 10 C-5.555 5.05 -5.555 5.05 0 0 Z " fill="#EE8083" transform="translate(1515,763)"/>
<path d="M0 0 C4.54074179 1.42358391 7.03973147 3.72132073 10.3125 7.125 C11.19550781 8.03507812 12.07851562 8.94515625 12.98828125 9.8828125 C13.65214844 10.58148438 14.31601563 11.28015625 15 12 C10.6811346 12 8.78127223 9.38440717 5.8125 6.5625 C5.25369141 6.04623047 4.69488281 5.52996094 4.11914062 4.99804688 C2.72081232 3.69191604 1.357217 2.34880015 0 1 C0 0.67 0 0.34 0 0 Z " fill="#ED8686" transform="translate(1776,483)"/>
<path d="M0 0 C0 3 0 3 -2.40625 5.48046875 C-3.43005231 6.39125392 -4.46167034 7.29331192 -5.5 8.1875 C-6.02464844 8.65091797 -6.54929687 9.11433594 -7.08984375 9.59179688 C-8.38666224 10.735355 -9.69249867 11.86867174 -11 13 C-11.66 12.67 -12.32 12.34 -13 12 C-8.71 8.04 -4.42 4.08 0 0 Z " fill="#FEEAE8" transform="translate(1163,857)"/>
<path d="M0 0 C0.33 0.99 0.66 1.98 1 3 C-3.455 6.96 -3.455 6.96 -8 11 C-8.99 10.67 -9.98 10.34 -11 10 C-9.93458984 9.04287109 -9.93458984 9.04287109 -8.84765625 8.06640625 C-7.46900391 6.82697266 -7.46900391 6.82697266 -6.0625 5.5625 C-4.68771484 4.32693359 -4.68771484 4.32693359 -3.28515625 3.06640625 C-1.61665644 1.56046061 -1.61665644 1.56046061 0 0 Z " fill="#EF8084" transform="translate(869,1358)"/>
<path d="M0 0 C0.33 0.66 0.66 1.32 1 2 C0.01 3.485 0.01 3.485 -1 5 C-1.99 5 -2.98 5 -4 5 C-4.226875 5.61875 -4.45375 6.2375 -4.6875 6.875 C-6.37929835 9.61410209 -7.99244161 10.05024472 -11 11 C-7.6189962 6.86378916 -4.33409466 3.18683431 0 0 Z " fill="#EF8285" transform="translate(1399,870)"/>
<path d="M0 0 C4.04161955 1.34484714 6.38678154 3.0505162 9.3125 6.125 C10.00988281 6.84945313 10.70726563 7.57390625 11.42578125 8.3203125 C11.94527344 8.87460938 12.46476562 9.42890625 13 10 C12.67 10.66 12.34 11.32 12 12 C8 8 4 4 0 0 Z " fill="#ED8386" transform="translate(2825,1430)"/>
<path d="M0 0 C0.33 0.99 0.66 1.98 1 3 C-1.64 4.98 -4.28 6.96 -7 9 C-7.66 8.67 -8.32 8.34 -9 8 C-6.03 5.36 -3.06 2.72 0 0 Z " fill="#EF8284" transform="translate(1155,1095)"/>
<path d="M0 0 C0.33 0.66 0.66 1.32 1 2 C0.09515208 3.15518918 -0.8244206 4.29885406 -1.75 5.4375 C-2.26046875 6.07558594 -2.7709375 6.71367188 -3.296875 7.37109375 C-5.19667629 9.18810554 -6.43586908 9.60423197 -9 10 C-8.06409496 8.8944811 -7.12620142 7.79064547 -6.1875 6.6875 C-5.66542969 6.07261719 -5.14335938 5.45773437 -4.60546875 4.82421875 C-3.12827531 3.14575321 -1.59960869 1.56117966 0 0 Z " fill="#EF7B7C" transform="translate(1519,1638)"/>
<path d="M0 0 C1.32 0.66 2.64 1.32 4 2 C1.69 4.31 -0.62 6.62 -3 9 C-3.33 8.01 -3.66 7.02 -4 6 C-3.67 5.34 -3.34 4.68 -3 4 C-2.01 4 -1.02 4 0 4 C-0.33 3.01 -0.66 2.02 -1 1 C-0.67 0.67 -0.34 0.34 0 0 Z " fill="#F38184" transform="translate(853,1138)"/>
<path d="M0 0 C-1.5830577 4.2742558 -4.50568404 6.26531794 -8 9 C-8.66 8.67 -9.32 8.34 -10 8 C-8.71451591 6.66070495 -7.42141845 5.32871357 -6.125 4 C-5.04605469 2.88625 -5.04605469 2.88625 -3.9453125 1.75 C-2 0 -2 0 0 0 Z " fill="#EF8485" transform="translate(1205,1050)"/>
<path d="M0 0 C0 4.35251187 -2.06165511 5.92809398 -5 9 C-7.171875 9.6796875 -7.171875 9.6796875 -9 10 C-8.06409496 8.8944811 -7.12620142 7.79064547 -6.1875 6.6875 C-5.66542969 6.07261719 -5.14335938 5.45773437 -4.60546875 4.82421875 C-3.12827531 3.14575321 -1.59960869 1.56117966 0 0 Z " fill="#F08383" transform="translate(846,1379)"/>
<path d="M0 0 C0 4.35251187 -2.06165511 5.92809398 -5 9 C-7.171875 9.6796875 -7.171875 9.6796875 -9 10 C-8.06409496 8.8944811 -7.12620142 7.79064547 -6.1875 6.6875 C-5.66542969 6.07261719 -5.14335938 5.45773437 -4.60546875 4.82421875 C-3.12827531 3.14575321 -1.59960869 1.56117966 0 0 Z " fill="#EF7F7F" transform="translate(857,1369)"/>
<path d="M0 0 C0 3 0 3 -1.75 5.04296875 C-2.4925 5.75066406 -3.235 6.45835938 -4 7.1875 C-4.7425 7.90292969 -5.485 8.61835937 -6.25 9.35546875 C-6.8275 9.89816406 -7.405 10.44085937 -8 11 C-8.99 10.67 -9.98 10.34 -11 10 C-5.555 5.05 -5.555 5.05 0 0 Z " fill="#FEEAE9" transform="translate(643,1337)"/>
<path d="M0 0 C0.33 0.99 0.66 1.98 1 3 C-0.09283577 4.03295436 -1.19970579 5.05107835 -2.3125 6.0625 C-2.92738281 6.63097656 -3.54226563 7.19945312 -4.17578125 7.78515625 C-4.77777344 8.18605469 -5.37976562 8.58695313 -6 9 C-6.99 8.67 -7.98 8.34 -9 8 C-6.03 5.36 -3.06 2.72 0 0 Z " fill="#EF7D80" transform="translate(1095,1150)"/>
<path d="M0 0 C0 3 0 3 -1.75 4.82421875 C-2.4925 5.43910156 -3.235 6.05398438 -4 6.6875 C-4.7425 7.31011719 -5.485 7.93273438 -6.25 8.57421875 C-6.8275 9.04472656 -7.405 9.51523438 -8 10 C-8.66 9.67 -9.32 9.34 -10 9 C-6.7 6.03 -3.4 3.06 0 0 Z " fill="#FFE9E6" transform="translate(415,1550)"/>
<path d="M0 0 C4.10435938 0.45603993 6.36294883 0.76361901 9 4 C9.721875 4.721875 10.44375 5.44375 11.1875 6.1875 C11.785625 6.785625 12.38375 7.38375 13 8 C8.27626146 6.37621488 4.05818166 3.89006982 0 1 C0 0.67 0 0.34 0 0 Z " fill="#EE8183" transform="translate(1933,1426)"/>
<path d="M0 0 C0 4.38968456 -2.12805101 5.76905739 -5 9 C-6.32 8.67 -7.64 8.34 -9 8 C-8.43410156 7.50628906 -7.86820313 7.01257812 -7.28515625 6.50390625 C-6.55167969 5.86324219 -5.81820312 5.22257812 -5.0625 4.5625 C-4.33160156 3.92441406 -3.60070312 3.28632812 -2.84765625 2.62890625 C-1.87860647 1.77458541 -0.91348825 0.91348825 0 0 Z " fill="#EE7F7F" transform="translate(1021,1218)"/>
<path d="M0 0 C3.59412911 1.33496224 6.92170156 2.69127617 10 5 C10.8125 7.6875 10.8125 7.6875 11 10 C7.19364503 6.79239749 3.45436433 3.59253891 0 0 Z " fill="#ED8484" transform="translate(1962,651)"/>
<path d="M0 0 C1.65 0 3.3 0 5 0 C5.268125 0.78375 5.53625 1.5675 5.8125 2.375 C6.84814432 5.28114923 6.84814432 5.28114923 10 7 C9.67 7.66 9.34 8.32 9 9 C7.68412059 7.87895467 6.37239647 6.75303035 5.0625 5.625 C4.33160156 4.99851562 3.60070313 4.37203125 2.84765625 3.7265625 C1 2 1 2 0 0 Z " fill="#EE8282" transform="translate(1925,617)"/>
<path d="M0 0 C1.18771723 3.42943519 0.80226223 5.37784675 -0.4375 8.75 C-0.86869141 9.94882813 -0.86869141 9.94882813 -1.30859375 11.171875 C-1.53675781 11.77515625 -1.76492188 12.3784375 -2 13 C-2.66 13 -3.32 13 -4 13 C-3.52140759 11.39566191 -3.04210442 9.79153584 -2.5625 8.1875 C-2.29566406 7.29417969 -2.02882813 6.40085937 -1.75390625 5.48046875 C-1.19612127 3.64526945 -0.60655425 1.81966274 0 0 Z " fill="#ED8483" transform="translate(1456,1730)"/>
<path d="M0 0 C0.66 0.33 1.32 0.66 2 1 C-4.14285714 7.71428571 -4.14285714 7.71428571 -9 8 C-6.14723863 5.06799526 -3.34920216 2.35684596 0 0 Z " fill="#FFE7E6" transform="translate(1423,1455)"/>
<path d="M0 0 C0.598125 0.309375 1.19625 0.61875 1.8125 0.9375 C4.08956772 2.10209704 4.08956772 2.10209704 7 3 C8.1875 6.0625 8.1875 6.0625 9 9 C7.87105124 8.06725891 6.74699124 7.12859878 5.625 6.1875 C4.99851562 5.66542969 4.37203125 5.14335938 3.7265625 4.60546875 C2 3 2 3 0 0 Z " fill="#ED7F80" transform="translate(2615,1239)"/>
<path d="M0 0 C0 4.05480631 -1.54870092 5.84832975 -4 9 C-4.99 9 -5.98 9 -7 9 C-5.44499019 5.18315774 -2.96404505 2.80804268 0 0 Z " fill="#ED7B7A" transform="translate(1071,1172)"/>
<path d="M0 0 C0.66 0 1.32 0 2 0 C0.52307692 4.67692308 0.52307692 4.67692308 -2.125 6.3125 C-3.053125 6.6528125 -3.053125 6.6528125 -4 7 C-2.92598892 4.08482708 -2.22189824 2.22189824 0 0 Z " fill="#F07D7E" transform="translate(1485,1678)"/>
<path d="M0 0 C3.94139078 1.66751148 6.7892812 4.22710649 10 7 C9.67 7.66 9.34 8.32 9 9 C7.68412059 7.87895467 6.37239647 6.75303035 5.0625 5.625 C4.33160156 4.99851562 3.60070313 4.37203125 2.84765625 3.7265625 C1 2 1 2 0 0 Z " fill="#EC8385" transform="translate(2678,1296)"/>
<path d="M0 0 C0 3 0 3 -1.3125 4.60546875 C-1.869375 5.12753906 -2.42625 5.64960937 -3 6.1875 C-3.556875 6.71730469 -4.11375 7.24710938 -4.6875 7.79296875 C-5.120625 8.19128906 -5.55375 8.58960938 -6 9 C-6.99 8.67 -7.98 8.34 -9 8 C-6.03 5.36 -3.06 2.72 0 0 Z " fill="#EC8686" transform="translate(1669,621)"/>
<path d="M0 0 C0.33 0.99 0.66 1.98 1 3 C0.00390625 4.82421875 0.00390625 4.82421875 -1.4375 6.6875 C-1.91058594 7.31011719 -2.38367187 7.93273438 -2.87109375 8.57421875 C-3.24363281 9.04472656 -3.61617187 9.51523438 -4 10 C-4.66 9.67 -5.32 9.34 -6 9 C-4.02 6.03 -2.04 3.06 0 0 Z " fill="#FEE6E3" transform="translate(1311,1574)"/>
<path d="M0 0 C3.43595166 1.52708963 6.11912454 3.59927045 9 6 C8.67 6.99 8.34 7.98 8 9 C6.66368764 7.6905332 5.33102075 6.37734515 4 5.0625 C3.2575 4.33160156 2.515 3.60070313 1.75 2.84765625 C0 1 0 1 0 0 Z " fill="#FFECE9" transform="translate(2545,1403)"/>
<path d="M0 0 C3.43595166 1.52708963 6.11912454 3.59927045 9 6 C8.67 6.99 8.34 7.98 8 9 C6.66368764 7.6905332 5.33102075 6.37734515 4 5.0625 C3.2575 4.33160156 2.515 3.60070312 1.75 2.84765625 C0 1 0 1 0 0 Z " fill="#ED8384" transform="translate(2219,882)"/>
<path d="M0 0 C5.875 3.75 5.875 3.75 7 6 C4.69 5.34 2.38 4.68 0 4 C0 2.68 0 1.36 0 0 Z " fill="#F07D80" transform="translate(1948,865)"/>
<path d="M0 0 C0.99 0.33 1.98 0.66 3 1 C0.69 3.31 -1.62 5.62 -4 8 C-4.33 7.01 -4.66 6.02 -5 5 C-4.34 5 -3.68 5 -3 5 C-3 4.34 -3 3.68 -3 3 C-2.34 3 -1.68 3 -1 3 C-0.67 2.01 -0.34 1.02 0 0 Z " fill="#EF8A8C" transform="translate(1364,668)"/>
<path d="M0 0 C0.66 0.33 1.32 0.66 2 1 C0.35 3.64 -1.3 6.28 -3 9 C-4 6 -4 6 -3.1875 3.375 C-2 1 -2 1 0 0 Z " fill="#EE8180" transform="translate(1313,1568)"/>
<path d="M0 0 C2.31 0 4.62 0 7 0 C5.35 1.65 3.7 3.3 2 5 C1.34 3.35 0.68 1.7 0 0 Z " fill="#F37F7F" transform="translate(410,1548)"/>
<path d="M0 0 C0.598125 0.309375 1.19625 0.61875 1.8125 0.9375 C4.08956772 2.10209704 4.08956772 2.10209704 7 3 C7.33 4.65 7.66 6.3 8 8 C6.85073734 7.04578192 5.70569459 6.08647955 4.5625 5.125 C3.92441406 4.59132813 3.28632812 4.05765625 2.62890625 3.5078125 C1 2 1 2 0 0 Z " fill="#EC7F7F" transform="translate(2013,1485)"/>
<path d="M0 0 C0.33 0.66 0.66 1.32 1 2 C-0.65 3.98 -2.3 5.96 -4 8 C-4.66 7.67 -5.32 7.34 -6 7 C-4.02 4.69 -2.04 2.38 0 0 Z " fill="#ED7A7C" transform="translate(981,1255)"/>
<path d="M0 0 C0 3.51716303 -0.82445585 4.37121748 -3 7 C-4.32 6.67 -5.64 6.34 -7 6 C-4.69 4.02 -2.38 2.04 0 0 Z " fill="#EF8285" transform="translate(1079,1165)"/>
<path d="M0 0 C0 3.51716303 -0.82445585 4.37121748 -3 7 C-4.32 6.67 -5.64 6.34 -7 6 C-4.69 4.02 -2.38 2.04 0 0 Z " fill="#F08182" transform="translate(1375,892)"/>
<path d="M0 0 C0.99 0.33 1.98 0.66 3 1 C-0.465 3.97 -0.465 3.97 -4 7 C-4 6.01 -4 5.02 -4 4 C-3.34 4 -2.68 4 -2 4 C-1.34 2.68 -0.68 1.36 0 0 Z " fill="#FFECE8" transform="translate(1373,891)"/>
<path d="M0 0 C0.66 0.66 1.32 1.32 2 2 C0.35 3.32 -1.3 4.64 -3 6 C-3.66 5.34 -4.32 4.68 -5 4 C-3.35 2.68 -1.7 1.36 0 0 Z " fill="#F38385" transform="translate(1613,673)"/>
<path d="M0 0 C0.99 0.33 1.98 0.66 3 1 C0.69 2.65 -1.62 4.3 -4 6 C-4.33 5.01 -4.66 4.02 -5 3 C-2.6875 1.4375 -2.6875 1.4375 0 0 Z " fill="#FEECE6" transform="translate(1552,1609)"/>
<path d="M0 0 C0.99 0 1.98 0 3 0 C3.99 1.98 4.98 3.96 6 6 C5.01 6 4.02 6 3 6 C2.01 4.02 1.02 2.04 0 0 Z " fill="#F57C7F" transform="translate(2497,1131)"/>
<path d="M0 0 C0.33 0.99 0.66 1.98 1 3 C-0.65 4.32 -2.3 5.64 -4 7 C-4.66 6.67 -5.32 6.34 -6 6 C-4.02 4.02 -2.04 2.04 0 0 Z " fill="#F0898A" transform="translate(1522,756)"/>
</svg>
