<?xml version="1.0" encoding="UTF-8"?>
<svg version="1.1" xmlns="http://www.w3.org/2000/svg" width="3375" height="3375">
<path d="M0 0 C1113.75 0 2227.5 0 3375 0 C3375 1113.75 3375 2227.5 3375 3375 C2261.25 3375 1147.5 3375 0 3375 C0 2261.25 0 1147.5 0 0 Z " fill="#FD8083" transform="translate(0,0)"/>
<path d="M0 0 C5.28181162 1.50476086 8.47805797 4.96463336 12.3125 8.6875 C13.65803176 9.96961364 15.00437647 11.2508747 16.3515625 12.53125 C16.98868164 13.1396875 17.62580078 13.748125 18.28222656 14.375 C20.2084222 16.19716574 22.17797572 17.95778289 24.1875 19.6875 C27.47604802 22.51950339 30.68126606 25.43704453 33.875 28.375 C39.2163038 33.28799565 44.59795513 38.15379254 50 43 C51.66692647 44.49971128 53.33359149 45.99971321 55 47.5 C55.825 48.2425 56.65 48.985 57.5 49.75 C75 65.5 75 65.5 77.5078125 67.7578125 C79.14739879 69.23292618 80.78799655 70.70691652 82.4296875 72.1796875 C87.0203061 76.30097768 91.58447107 80.44873788 96.125 84.625 C99.99367822 88.18253099 103.90334125 91.68289575 107.875 95.125 C111.15431143 98.01851009 114.36106712 100.99088359 117.578125 103.953125 C120.35494057 106.50555143 123.14980717 109.02983288 126 111.5 C129.93167214 114.90744919 133.75361244 118.43129673 137.58032227 121.95532227 C140.33473428 124.48740116 143.10742499 126.99035268 145.9375 129.4375 C150.12032011 133.06144644 154.16271807 136.83255746 158.22021484 140.59521484 C161.73212744 143.84615512 165.29001418 147.02984313 168.91015625 150.16015625 C171.64370559 152.56670156 174.32114006 155.03303196 177 157.5 C180.30026876 160.53890177 183.60949347 163.561561 187 166.5 C190.93167214 169.90744919 194.75361244 173.43129673 198.58032227 176.95532227 C201.33473428 179.48740116 204.10742499 181.99035268 206.9375 184.4375 C211.12032011 188.06144644 215.16271807 191.83255746 219.22021484 195.59521484 C222.73212744 198.84615512 226.29001418 202.02984313 229.91015625 205.16015625 C232.64370559 207.56670156 235.32114006 210.03303196 238 212.5 C241.30026876 215.53890177 244.60949347 218.561561 248 221.5 C251.93167214 224.90744919 255.75361244 228.43129673 259.58032227 231.95532227 C262.33473428 234.48740116 265.10742499 236.99035268 267.9375 239.4375 C272.12032011 243.06144644 276.16271807 246.83255746 280.22021484 250.59521484 C283.73212744 253.84615512 287.29001418 257.02984313 290.91015625 260.16015625 C293.64370559 262.56670156 296.32114006 265.03303196 299 267.5 C302.30026876 270.53890177 305.60949347 273.561561 309 276.5 C312.87817013 279.86322638 316.65527811 283.33335671 320.43310547 286.80810547 C325.25584891 291.24223628 330.1234112 295.6251824 335 300 C336.66692647 301.49971128 338.33359149 302.99971321 340 304.5 C340.825 305.2425 341.65 305.985 342.5 306.75 C370 331.5 370 331.5 372.5078125 333.7578125 C374.14739879 335.23292618 375.78799655 336.70691652 377.4296875 338.1796875 C382.0203061 342.30097768 386.58447107 346.44873788 391.125 350.625 C394.99367822 354.18253099 398.90334125 357.68289575 402.875 361.125 C406.15431143 364.01851009 409.36106712 366.99088359 412.578125 369.953125 C415.35494057 372.50555143 418.14980717 375.02983288 421 377.5 C424.93167214 380.90744919 428.75361244 384.43129673 432.58032227 387.95532227 C435.33473428 390.48740116 438.10742499 392.99035268 440.9375 395.4375 C445.12032011 399.06144644 449.16271807 402.83255746 453.22021484 406.59521484 C456.73212744 409.84615512 460.29001418 413.02984313 463.91015625 416.16015625 C466.64370559 418.56670156 469.32114006 421.03303196 472 423.5 C475.30026876 426.53890177 478.60949347 429.561561 482 432.5 C485.93167214 435.90744919 489.75361244 439.43129673 493.58032227 442.95532227 C496.33473428 445.48740116 499.10742499 447.99035268 501.9375 450.4375 C506.12032011 454.06144644 510.16271807 457.83255746 514.22021484 461.59521484 C517.73212744 464.84615512 521.29001418 468.02984313 524.91015625 471.16015625 C527.64370559 473.56670156 530.32114006 476.03303196 533 478.5 C536.30026876 481.53890177 539.60949347 484.561561 543 487.5 C546.87817013 490.86322638 550.65527811 494.33335671 554.43310547 497.80810547 C559.25584891 502.24223628 564.1234112 506.6251824 569 511 C570.66692647 512.49971128 572.33359149 513.99971321 574 515.5 C574.825 516.2425 575.65 516.985 576.5 517.75 C604 542.5 604 542.5 606.5078125 544.7578125 C608.14739879 546.23292618 609.78799655 547.70691652 611.4296875 549.1796875 C616.0203061 553.30097768 620.58447107 557.44873788 625.125 561.625 C628.99367822 565.18253099 632.90334125 568.68289575 636.875 572.125 C640.15431143 575.01851009 643.36106712 577.99088359 646.578125 580.953125 C649.35494057 583.50555143 652.14980717 586.02983288 655 588.5 C658.93167214 591.90744919 662.75361244 595.43129673 666.58032227 598.95532227 C669.33473428 601.48740116 672.10742499 603.99035268 674.9375 606.4375 C679.12032011 610.06144644 683.16271807 613.83255746 687.22021484 617.59521484 C690.73212744 620.84615512 694.29001418 624.02984313 697.91015625 627.16015625 C700.64370559 629.56670156 703.32114006 632.03303196 706 634.5 C709.30026876 637.53890177 712.60949347 640.561561 716 643.5 C719.93167214 646.90744919 723.75361244 650.43129673 727.58032227 653.95532227 C730.33473428 656.48740116 733.10742499 658.99035268 735.9375 661.4375 C740.12032011 665.06144644 744.16271807 668.83255746 748.22021484 672.59521484 C751.73212744 675.84615512 755.29001418 679.02984313 758.91015625 682.16015625 C761.64370559 684.56670156 764.32114006 687.03303196 767 689.5 C770.30026876 692.53890177 773.60949347 695.561561 777 698.5 C780.87817013 701.86322638 784.65527811 705.33335671 788.43310547 708.80810547 C793.25584891 713.24223628 798.1234112 717.6251824 803 722 C804.66692647 723.49971128 806.33359149 724.99971321 808 726.5 C808.825 727.2425 809.65 727.985 810.5 728.75 C838 753.5 838 753.5 840.5078125 755.7578125 C842.14739879 757.23292618 843.78799655 758.70691652 845.4296875 760.1796875 C850.0203061 764.30097768 854.58447107 768.44873788 859.125 772.625 C862.99367822 776.18253099 866.90334125 779.68289575 870.875 783.125 C874.15431143 786.01851009 877.36106712 788.99088359 880.578125 791.953125 C883.35494057 794.50555143 886.14980717 797.02983288 889 799.5 C892.93167214 802.90744919 896.75361244 806.43129673 900.58032227 809.95532227 C903.33473428 812.48740116 906.10742499 814.99035268 908.9375 817.4375 C913.12032011 821.06144644 917.16271807 824.83255746 921.22021484 828.59521484 C924.73212744 831.84615512 928.29001418 835.02984313 931.91015625 838.16015625 C934.64370559 840.56670156 937.32114006 843.03303196 940 845.5 C943.30026876 848.53890177 946.60949347 851.561561 950 854.5 C953.93167214 857.90744919 957.75361244 861.43129673 961.58032227 864.95532227 C964.33473428 867.48740116 967.10742499 869.99035268 969.9375 872.4375 C974.12032011 876.06144644 978.16271807 879.83255746 982.22021484 883.59521484 C985.73212744 886.84615512 989.29001418 890.02984313 992.91015625 893.16015625 C995.64370559 895.56670156 998.32114006 898.03303196 1001 900.5 C1004.30026876 903.53890177 1007.60949347 906.561561 1011 909.5 C1014.87817013 912.86322638 1018.65527811 916.33335671 1022.43310547 919.80810547 C1027.25584891 924.24223628 1032.1234112 928.6251824 1037 933 C1038.66692647 934.49971128 1040.33359149 935.99971321 1042 937.5 C1042.825 938.2425 1043.65 938.985 1044.5 939.75 C1072 964.5 1072 964.5 1074.5078125 966.7578125 C1076.14739879 968.23292618 1077.78799655 969.70691652 1079.4296875 971.1796875 C1084.49308225 975.72541889 1089.52288204 980.30618636 1094.53417969 984.90917969 C1100.11242974 990.02884528 1105.74562918 995.08651254 1111.38671875 1000.13671875 C1117.2100386 1005.3598897 1122.96883912 1010.64897144 1128.7109375 1015.9609375 C1131.7987495 1018.81666498 1134.89757238 1021.66016833 1138 1024.5 C1147.53997855 1033.23779937 1157.0336888 1042.02355426 1166.48364258 1050.85864258 C1170.30368907 1054.42674217 1174.14177259 1057.97321763 1178 1061.5 C1183.15250878 1066.20987715 1188.25967748 1070.96641765 1193.35888672 1075.73388672 C1199.54698349 1081.51713995 1205.77016044 1087.26178773 1212 1093 C1219.51978893 1099.92636539 1227.01586305 1106.8767116 1234.48388672 1113.85888672 C1239.26308982 1118.32284221 1244.07901093 1122.7442573 1248.90625 1127.15625 C1253.11030878 1131.00997055 1257.26856185 1134.91281644 1261.43359375 1138.80859375 C1265.2699192 1142.39387131 1269.1241129 1145.95752254 1273 1149.5 C1277.5273629 1153.63791233 1282.02055831 1157.81028471 1286.5 1162 C1294.00549438 1169.01807516 1301.54354162 1175.99971394 1309.1875 1182.8671875 C1309.70151367 1183.3302832 1310.21552734 1183.79337891 1310.74511719 1184.27050781 C1312.16652012 1185.54986269 1313.5909789 1186.82582009 1315.015625 1188.1015625 C1315.67046875 1188.72804688 1316.3253125 1189.35453125 1317 1190 C1317 1190.33 1317 1190.66 1317 1191 C1196.22 1191 1075.44 1191 951 1191 C951 1460.61 951 1730.22 951 2008 C494.61 2008 38.22 2008 -432 2008 C-432.59205654 1999.71120838 -433.14803708 1991.66194846 -433.12863445 1983.39396572 C-433.13038749 1982.4173737 -433.13214053 1981.44078169 -433.13394669 1980.43459597 C-433.13855965 1977.19648984 -433.13615344 1973.95842955 -433.13371277 1970.72032166 C-433.13558313 1968.36127119 -433.13788473 1966.00222104 -433.14057809 1963.64317137 C-433.14603734 1957.86156763 -433.1468817 1952.07997632 -433.14571724 1946.29837042 C-433.14457591 1939.36581083 -433.14923301 1932.43325806 -433.1539966 1925.50070044 C-433.1636482 1911.12635564 -433.16648007 1896.75201442 -433.16705366 1882.37766676 C-433.16751407 1871.26793183 -433.16957691 1860.1581983 -433.17275429 1849.04846382 C-433.17365191 1845.84473739 -433.17454173 1842.64101096 -433.17542917 1839.43728453 C-433.17565021 1838.64069604 -433.17587126 1837.84410756 -433.17609901 1837.02338003 C-433.18225043 1814.62618474 -433.18619988 1792.22898995 -433.18575573 1769.83179379 C-433.18574015 1768.98798756 -433.18572457 1768.14418133 -433.18570852 1767.27480521 C-433.18562542 1762.99856841 -433.18552638 1758.72233161 -433.18542381 1754.4460948 C-433.1853939 1753.17230997 -433.1853939 1753.17230997 -433.18536337 1751.87279211 C-433.18532294 1750.15552117 -433.18528114 1748.43825023 -433.18523798 1746.72097929 C-433.18462592 1720.0333004 -433.19212019 1693.34563423 -433.20581055 1666.65795898 C-433.22120657 1636.63333724 -433.22977459 1606.60872386 -433.22884732 1576.58409792 C-433.2287727 1573.37565617 -433.22872399 1570.16721441 -433.22869301 1566.95877266 C-433.22867553 1565.7738895 -433.22867553 1565.7738895 -433.22865769 1564.56506932 C-433.22862705 1551.90909367 -433.23498532 1539.25312917 -433.24362527 1526.59715683 C-433.25214647 1513.85039796 -433.2530571 1501.10365519 -433.24651595 1488.35689502 C-433.24316916 1481.46525969 -433.24292128 1474.57366105 -433.2518692 1467.68202972 C-433.3288456 1402.87172441 -433.3288456 1402.87172441 -428.3125 1371.0625 C-428.11933701 1369.80860977 -428.11933701 1369.80860977 -427.92227173 1368.52938843 C-420.50980311 1320.65792298 -405.41095385 1273.95912491 -383.02001953 1230.96630859 C-381.92508298 1228.85558122 -380.85124627 1226.73478099 -379.77734375 1224.61328125 C-370.0041387 1205.48309613 -358.72763462 1187.29942355 -346 1170 C-345.24460937 1168.96101563 -344.48921875 1167.92203125 -343.7109375 1166.8515625 C-324.49694449 1140.79040108 -302.73814202 1114.98476875 -278 1094 C-276.97318017 1093.11027227 -275.94721224 1092.21956088 -274.921875 1091.328125 C-255.70653011 1074.66363571 -235.58668843 1059.4758077 -214 1046 C-213.08734375 1045.42886475 -213.08734375 1045.42886475 -212.15625 1044.84619141 C-155.88567145 1009.84675535 -93.77744712 988.36488823 -28.25 979.3125 C-27.08345383 979.14920197 -27.08345383 979.14920197 -25.89334106 978.98260498 C-6.32518709 976.26478428 13.06590588 975.73098561 32.8125 975.6875 C33.99720886 975.68454926 35.18191772 975.68159851 36.40252686 975.67855835 C56.88670173 975.66700835 76.74829805 977.05558356 97 980 C98.9057239 980.24501282 100.81192486 980.48636677 102.71875 980.72265625 C115.33432191 982.35216254 127.6688403 985.25326596 140.015625 988.27099609 C142.58062048 988.89755667 145.14887514 989.50718925 147.71875 990.11328125 C181.26134242 998.26083919 213.19371347 1011.64133668 244 1027 C245.28946533 1027.64171143 245.28946533 1027.64171143 246.60498047 1028.29638672 C277.02255636 1043.55662728 305.45396833 1063.29312251 331.15625 1085.55859375 C333.93032221 1087.94018047 336.76518774 1090.22259332 339.625 1092.5 C344.47880655 1096.44239309 348.86286852 1100.73510176 353.19921875 1105.2265625 C355.36093257 1107.36717172 357.53085257 1109.34476622 359.8359375 1111.3203125 C364.14465676 1115.05233797 368.05426345 1119.0818855 371.9375 1123.25 C372.63987793 1124.00087891 373.34225586 1124.75175781 374.06591797 1125.52539062 C378.45152167 1130.24694314 382.6797113 1135.04531881 386.68359375 1140.09765625 C388.47841882 1142.34648429 390.30043861 1144.55183534 392.16015625 1146.74609375 C401.13515291 1157.37713835 409.23783047 1168.45727982 417 1180 C417.49628906 1180.73750488 417.99257812 1181.47500977 418.50390625 1182.23486328 C430.66011958 1200.41535807 441.14290656 1219.49116923 451 1239 C451.40992187 1239.80904785 451.81984375 1240.6180957 452.2421875 1241.45166016 C475.42861826 1287.62027879 488.69822301 1338.79800869 494.375 1390 C494.45453918 1390.70788666 494.53407837 1391.41577332 494.61602783 1392.14511108 C496.94468915 1413.27071911 497.14376316 1434.41109766 497.09765625 1455.64453125 C497.09618118 1457.94641088 497.09516396 1460.24829086 497.09460449 1462.5501709 C497.08941712 1470.97095247 497.07545627 1479.3917268 497.0625 1487.8125 C497.041875 1506.684375 497.02125 1525.55625 497 1545 C430.01 1545 363.02 1545 294 1545 C293.6875 1481.75 293.6875 1481.75 293.61206055 1461.89355469 C293.5754297 1455.93959305 293.5754297 1455.93959305 293.5349884 1449.98565674 C293.51900209 1447.36557886 293.50749929 1444.74587867 293.50288391 1442.12579346 C293.47122448 1426.4906379 292.91228917 1411.38908423 290 1396 C289.6423938 1393.91550772 289.28540188 1391.83090969 288.9296875 1389.74609375 C280.15883205 1344.12761201 258.63028213 1300.44419642 227.05859375 1266.24609375 C225.26621038 1264.29045724 223.56960056 1262.28955742 221.875 1260.25 C212.21933932 1249.21177359 200.74938601 1239.71479682 189 1231 C188.34805664 1230.51289551 187.69611328 1230.02579102 187.02441406 1229.52392578 C176.50639829 1221.7169198 165.64735208 1214.98753795 154 1209 C153.1961084 1208.58508301 152.3922168 1208.17016602 151.56396484 1207.74267578 C138.31642643 1200.98510618 124.70915534 1195.67048061 110.63427734 1190.89404297 C108.51766347 1190.17568894 106.40801186 1189.4368363 104.30078125 1188.69140625 C95.03208728 1185.57760971 85.40163142 1184.05434676 75.77734375 1182.47021484 C73.25947499 1182.0439301 70.75632838 1181.57072302 68.25 1181.08203125 C42.35932052 1176.35285734 13.82575466 1177.65580598 -12 1182 C-12.93666504 1182.1556543 -13.87333008 1182.31130859 -14.83837891 1182.47167969 C-55.34371861 1189.53386002 -95.18370542 1207.16351732 -127.36328125 1232.70117188 C-128.82521484 1233.86129817 -130.30227052 1235.00230933 -131.78125 1236.140625 C-156.35381941 1255.26990371 -177.38651457 1279.20490931 -192.95166016 1306.18554688 C-193.70132908 1307.48306421 -194.45983069 1308.77549428 -195.22412109 1310.06445312 C-209.38303911 1334.03134434 -218.90352628 1359.97017906 -224.75 1387.125 C-224.94899902 1388.04176514 -225.14799805 1388.95853027 -225.35302734 1389.90307617 C-254.30664947 1532.02435356 -229.64450945 1679.95985609 -230 1825 C103.63 1825 437.26 1825 781 1825 C781 1569.91 781 1314.82 781 1052 C825.22 1051.67 869.44 1051.34 915 1051 C902.6380151 1039.34792454 902.6380151 1039.34792454 890 1028 C888.03486401 1026.21579725 886.07598678 1024.42466371 884.125 1022.625 C878.78480833 1017.71080652 873.40202801 1012.84619233 868 1008 C865.49687583 1005.74797293 862.99453386 1003.49507877 860.4921875 1001.2421875 C858.85260121 999.76707382 857.21200345 998.29308348 855.5703125 996.8203125 C850.97969436 992.69902273 846.41550032 988.55129287 841.875 984.375 C838.63782784 981.39781719 835.38862271 978.44047144 832.0625 975.5625 C827.87890143 971.93787911 823.8356539 968.16614933 819.77758789 964.40258789 C816.88635872 961.72598962 813.98110596 959.07688821 811 956.5 C806.83433839 952.89917386 802.81399952 949.14609026 798.77734375 945.40234375 C795.88618383 942.72584071 792.98101868 940.07681276 790 937.5 C785.83433839 933.89917386 781.81399952 930.14609026 777.77734375 926.40234375 C774.88618383 923.72584071 771.98101868 921.07681276 769 918.5 C764.83433839 914.89917386 760.81399952 911.14609026 756.77734375 907.40234375 C753.88618383 904.72584071 750.98101868 902.07681276 748 899.5 C743.83433839 895.89917386 739.81399952 892.14609026 735.77734375 888.40234375 C732.88618383 885.72584071 729.98101868 883.07681276 727 880.5 C722.83433839 876.89917386 718.81399952 873.14609026 714.77734375 869.40234375 C711.88618383 866.72584071 708.98101868 864.07681276 706 861.5 C701.83433839 857.89917386 697.81399952 854.14609026 693.77734375 850.40234375 C690.88618383 847.72584071 687.98101868 845.07681276 685 842.5 C680.83433839 838.89917386 676.81399952 835.14609026 672.77734375 831.40234375 C669.88618383 828.72584071 666.98101868 826.07681276 664 823.5 C660.42648214 820.41102693 656.96288886 817.21157787 653.5 814 C649.41431269 810.21115843 645.29606631 806.47828053 641.08203125 802.83203125 C637.86508207 800.00135739 634.7202932 797.09232984 631.56665039 794.19165039 C626.74397097 789.75763961 621.87730273 785.37383922 617 781 C611.59706695 776.15478907 606.21636096 771.28791402 600.875 766.375 C597.63782784 763.39781719 594.38862271 760.44047144 591.0625 757.5625 C586.87890143 753.93787911 582.8356539 750.16614933 578.77758789 746.40258789 C575.88635872 743.72598962 572.98110596 741.07688821 570 738.5 C565.83433839 734.89917386 561.81399952 731.14609026 557.77734375 727.40234375 C554.88618383 724.72584071 551.98101868 722.07681276 549 719.5 C544.83433839 715.89917386 540.81399952 712.14609026 536.77734375 708.40234375 C533.88618383 705.72584071 530.98101868 703.07681276 528 700.5 C523.83433839 696.89917386 519.81399952 693.14609026 515.77734375 689.40234375 C512.88618383 686.72584071 509.98101868 684.07681276 507 681.5 C502.83433839 677.89917386 498.81399952 674.14609026 494.77734375 670.40234375 C491.88618383 667.72584071 488.98101868 665.07681276 486 662.5 C481.83433839 658.89917386 477.81399952 655.14609026 473.77734375 651.40234375 C470.88618383 648.72584071 467.98101868 646.07681276 465 643.5 C461.42648214 640.41102693 457.96288886 637.21157787 454.5 634 C450.41431269 630.21115843 446.29606631 626.47828053 442.08203125 622.83203125 C438.86508207 620.00135739 435.7202932 617.09232984 432.56665039 614.19165039 C427.74397097 609.75763961 422.87730273 605.37383922 418 601 C412.59706641 596.15478859 407.21639461 591.28787784 401.875 586.375 C398.61609506 583.37819989 395.34500451 580.40085453 392 577.5 C388.12182987 574.13677362 384.34472189 570.66664329 380.56689453 567.19189453 C375.74415109 562.75776372 370.8765888 558.3748176 366 554 C363.49687583 551.74797293 360.99453386 549.49507877 358.4921875 547.2421875 C356.85260121 545.76707382 355.21200345 544.29308348 353.5703125 542.8203125 C348.9796939 538.69902232 344.41552893 534.55126212 339.875 530.375 C336.61609506 527.37819989 333.34500451 524.40085453 330 521.5 C326.12182987 518.13677362 322.34472189 514.66664329 318.56689453 511.19189453 C313.74415109 506.75776372 308.8765888 502.3748176 304 498 C302.33307353 496.50028872 300.66640851 495.00028679 299 493.5 C298.175 492.7575 297.35 492.015 296.5 491.25 C289 484.5 289 484.5 286.4921875 482.2421875 C284.85260121 480.76707382 283.21200345 479.29308348 281.5703125 477.8203125 C276.9796939 473.69902232 272.41552893 469.55126212 267.875 465.375 C264.61609506 462.37819989 261.34500451 459.40085453 258 456.5 C254.12182987 453.13677362 250.34472189 449.66664329 246.56689453 446.19189453 C241.74415109 441.75776372 236.8765888 437.3748176 232 433 C230.33307353 431.50028872 228.66640851 430.00028679 227 428.5 C226.175 427.7575 225.35 427.015 224.5 426.25 C207 410.5 207 410.5 204.4921875 408.2421875 C202.85260121 406.76707382 201.21200345 405.29308348 199.5703125 403.8203125 C194.9796939 399.69902232 190.41552893 395.55126212 185.875 391.375 C182.00632178 387.81746901 178.09665875 384.31710425 174.125 380.875 C170.84568857 377.98148991 167.63893288 375.00911641 164.421875 372.046875 C161.64505943 369.49444857 158.85019283 366.97016712 156 364.5 C152.0691075 361.0932265 148.24803427 357.56997215 144.421875 354.046875 C141.64505943 351.49444857 138.85019283 348.97016712 136 346.5 C132.0691075 343.0932265 128.24803427 339.56997215 124.421875 336.046875 C121.64505943 333.49444857 118.85019283 330.97016712 116 328.5 C112.12182987 325.13677362 108.34472189 321.66664329 104.56689453 318.19189453 C99.74415109 313.75776372 94.8765888 309.3748176 90 305 C88.33307353 303.50028872 86.66640851 302.00028679 85 300.5 C84.175 299.7575 83.35 299.015 82.5 298.25 C65 282.5 65 282.5 62.4921875 280.2421875 C60.85260121 278.76707382 59.21200345 277.29308348 57.5703125 275.8203125 C52.9796939 271.69902232 48.41552893 267.55126212 43.875 263.375 C40.00632178 259.81746901 36.09665875 256.31710425 32.125 252.875 C28.85230428 249.9873273 25.65157264 247.02142364 22.44165039 244.06445312 C18.88553595 240.79461922 15.28329375 237.58777957 11.62109375 234.4375 C10.0163427 233.01449184 8.5002349 231.53215479 7 230 C3.74792908 231.41738489 1.68638933 233.12526412 -0.75 235.6875 C-3.27703646 238.27921381 -5.81300884 240.77086051 -8.5625 243.125 C-12.55775008 246.56295587 -16.40450139 250.146802 -20.25 253.75 C-25.81718459 258.96540626 -31.41297445 264.14533006 -37.04296875 269.29296875 C-40.1833317 272.16490669 -43.31137033 275.05008448 -46.4375 277.9375 C-46.97705322 278.43580322 -47.51660645 278.93410645 -48.07250977 279.44750977 C-49.71516131 280.96483906 -51.35761721 282.48237982 -53 284 C-59.81626302 290.29846975 -66.63829457 296.59025261 -73.48291016 302.85791016 C-78.78859486 307.71841122 -84.07398724 312.60080912 -89.35888672 317.48388672 C-92.61239388 320.48958138 -95.86763876 323.49339394 -99.12255859 326.49755859 C-101.84399973 329.00946922 -104.56501749 331.52183529 -107.28515625 334.03515625 C-113.00708317 339.32112683 -118.73783427 344.59710804 -124.48291016 349.85791016 C-130.33774134 355.22148052 -136.16830321 360.61130451 -142 366 C-148.81626302 372.29846975 -155.63829457 378.59025261 -162.48291016 384.85791016 C-167.78859486 389.71841122 -173.07398724 394.60080912 -178.35888672 399.48388672 C-181.61239388 402.48958138 -184.86763876 405.49339394 -188.12255859 408.49755859 C-190.84399973 411.00946922 -193.56501749 413.52183529 -196.28515625 416.03515625 C-202.00708317 421.32112683 -207.73783427 426.59710804 -213.48291016 431.85791016 C-218.78859486 436.71841122 -224.07398724 441.60080912 -229.35888672 446.48388672 C-232.61239388 449.48958138 -235.86763876 452.49339394 -239.12255859 455.49755859 C-241.84399973 458.00946922 -244.56501749 460.52183529 -247.28515625 463.03515625 C-253.00708317 468.32112683 -258.73783427 473.59710804 -264.48291016 478.85791016 C-269.78859486 483.71841122 -275.07398724 488.60080912 -280.35888672 493.48388672 C-283.61239388 496.48958138 -286.86763876 499.49339394 -290.12255859 502.49755859 C-292.84399973 505.00946922 -295.56501749 507.52183529 -298.28515625 510.03515625 C-304.00708317 515.32112683 -309.73783427 520.59710804 -315.48291016 525.85791016 C-321.33774134 531.22148052 -327.16830321 536.61130451 -333 542 C-339.81626302 548.29846975 -346.63829457 554.59025261 -353.48291016 560.85791016 C-358.78859486 565.71841122 -364.07398724 570.60080912 -369.35888672 575.48388672 C-372.61239388 578.48958138 -375.86763876 581.49339394 -379.12255859 584.49755859 C-381.84399973 587.00946922 -384.56501749 589.52183529 -387.28515625 592.03515625 C-393.00708317 597.32112683 -398.73783427 602.59710804 -404.48291016 607.85791016 C-409.78859486 612.71841122 -415.07398724 617.60080912 -420.35888672 622.48388672 C-423.61239388 625.48958138 -426.86763876 628.49339394 -430.12255859 631.49755859 C-432.84399973 634.00946922 -435.56501749 636.52183529 -438.28515625 639.03515625 C-444.00708317 644.32112683 -449.73783427 649.59710804 -455.48291016 654.85791016 C-460.78859486 659.71841122 -466.07398724 664.60080912 -471.35888672 669.48388672 C-474.61239388 672.48958138 -477.86763876 675.49339394 -481.12255859 678.49755859 C-483.84399973 681.00946922 -486.56501749 683.52183529 -489.28515625 686.03515625 C-495.00708317 691.32112683 -500.73783427 696.59710804 -506.48291016 701.85791016 C-512.33774134 707.22148052 -518.16830321 712.61130451 -524 718 C-530.81626302 724.29846975 -537.63829457 730.59025261 -544.48291016 736.85791016 C-549.78859486 741.71841122 -555.07398724 746.60080912 -560.35888672 751.48388672 C-563.61239388 754.48958138 -566.86763876 757.49339394 -570.12255859 760.49755859 C-572.84399973 763.00946922 -575.56501749 765.52183529 -578.28515625 768.03515625 C-584.00708317 773.32112683 -589.73783427 778.59710804 -595.48291016 783.85791016 C-600.78859486 788.71841122 -606.07398724 793.60080912 -611.35888672 798.48388672 C-614.61239388 801.48958138 -617.86763876 804.49339394 -621.12255859 807.49755859 C-623.84399973 810.00946922 -626.56501749 812.52183529 -629.28515625 815.03515625 C-635.00708317 820.32112683 -640.73783427 825.59710804 -646.48291016 830.85791016 C-651.78859486 835.71841122 -657.07398724 840.60080912 -662.35888672 845.48388672 C-665.61239388 848.48958138 -668.86763876 851.49339394 -672.12255859 854.49755859 C-674.84399973 857.00946922 -677.56501749 859.52183529 -680.28515625 862.03515625 C-686.00708317 867.32112683 -691.73783427 872.59710804 -697.48291016 877.85791016 C-703.33774134 883.22148052 -709.16830321 888.61130451 -715 894 C-721.81626302 900.29846975 -728.63829457 906.59025261 -735.48291016 912.85791016 C-740.78859486 917.71841122 -746.07398724 922.60080912 -751.35888672 927.48388672 C-754.61239388 930.48958138 -757.86763876 933.49339394 -761.12255859 936.49755859 C-763.84399973 939.00946922 -766.56501749 941.52183529 -769.28515625 944.03515625 C-775.00708317 949.32112683 -780.73783427 954.59710804 -786.48291016 959.85791016 C-791.78859486 964.71841122 -797.07398724 969.60080912 -802.35888672 974.48388672 C-805.61239388 977.48958138 -808.86763876 980.49339394 -812.12255859 983.49755859 C-814.84399973 986.00946922 -817.56501749 988.52183529 -820.28515625 991.03515625 C-826.00708317 996.32112683 -831.73783427 1001.59710804 -837.48291016 1006.85791016 C-843.33774134 1012.22148052 -849.16830321 1017.61130451 -855 1023 C-858.79560101 1026.50727049 -862.59214522 1030.01350745 -866.39160156 1033.51660156 C-867.4746874 1034.51551315 -868.55736188 1035.51487092 -869.63964844 1036.51464844 C-871.23762122 1037.9903615 -872.83735699 1039.46414084 -874.4375 1040.9375 C-875.36433594 1041.79214844 -876.29117187 1042.64679688 -877.24609375 1043.52734375 C-880.10079085 1046.09049732 -883.05268707 1048.54390589 -886 1051 C-807.79 1051.495 -807.79 1051.495 -728 1052 C-728 1460.21 -728 1868.42 -728 2289 C75.55 2289 879.1 2289 1707 2289 C1707 2349.39 1707 2409.78 1707 2472 C1656.93709464 2472.00342989 1656.93709464 2472.00342989 1638.67132151 2472.0046621 C1637.47456749 2472.00474283 1636.27781346 2472.00482357 1635.04479416 2472.00490675 C1579.146562 2472.00867483 1523.24832983 2472.01230107 1467.35009766 2472.01586914 C1466.17761379 2472.015944 1466.17761379 2472.015944 1464.98144337 2472.01602038 C1380.86540036 2472.02139063 1296.74935733 2472.02653953 963.0934895 2472.042239 C960.30830229 2472.04234323 957.52311508 2472.04244766 954.73792787 2472.04255217 C875.82074826 2472.04551293 796.90356866 2472.04827978 717.98638904 2472.05078693 C715.065667 2472.05087972 712.14494497 2472.05097252 709.22422294 2472.05106533 C707.77722811 2472.05111131 707.77722811 2472.05111131 706.30100107 2472.05115821 C670.02781101 2472.05231126 633.75462096 2472.05350863 597.4814309 2472.05473244 C593.54024363 2472.05486537 589.59905636 2472.05499779 585.6578691 2472.05512976 C492.6044932 2472.05824588 399.55111743 2472.06215973 306.4977417 2472.06866455 C305.51796243 2472.06873299 304.53818316 2472.06880142 303.52871361 2472.06887193 C270.94573269 2472.07114901 238.36275178 2472.0735034 205.77977086 2472.07586844 C176.3400612 2472.07800509 146.90035153 2472.08011399 117.46064186 2472.08213139 C116.49356647 2472.08219767 115.52649108 2472.08226395 114.53011037 2472.08233224 C53.98564152 2472.08647458 -6.55882731 2472.08941535 -67.10329628 2472.09113979 C-68.50547293 2472.09117997 -68.50547293 2472.09117997 -69.93597639 2472.09122096 C-110.98521256 2472.09239616 -152.03444874 2472.09332053 -193.08368492 2472.0939579 C-209.59683948 2472.09421546 -226.10999404 2472.09451019 -242.62314859 2472.09482527 C-245.36120377 2472.09487721 -248.09925894 2472.09492794 -250.83731411 2472.09497854 C-292.7449935 2472.09576162 -334.65267264 2472.09737646 -376.56035185 2472.10139394 C-377.91713939 2472.10152399 -377.91713939 2472.10152399 -379.30133678 2472.10165666 C-393.8529388 2472.10305652 -408.40454081 2472.10452544 -422.95614281 2472.10600626 C-464.2437614 2472.1102078 -505.53137974 2472.11394815 -546.81899858 2472.11413276 C-548.07442477 2472.11413872 -548.07442477 2472.11413872 -549.35521312 2472.11414481 C-567.61042529 2472.11422158 -585.86563746 2472.11402546 -604.12084963 2472.1135619 C-611.40043832 2472.11338145 -618.68002701 2472.11323843 -625.95961571 2472.11310768 C-627.15076959 2472.11308483 -627.15076959 2472.11308483 -628.36598719 2472.11306151 C-653.59433505 2472.11259548 -678.82268134 2472.11521727 -704.05102879 2472.11960873 C-728.8733414 2472.12391715 -753.69565205 2472.12522171 -778.51796491 2472.12209016 C-781.91103537 2472.1216626 -785.30410583 2472.12127019 -788.69717629 2472.12089889 C-789.36148624 2472.12082487 -790.02579618 2472.12075084 -790.71023673 2472.12067457 C-801.85851784 2472.11952956 -813.00679516 2472.12234354 -824.1550755 2472.126217 C-833.77875235 2472.12929166 -843.40242457 2472.12880488 -853.02610127 2472.12530107 C-858.49791887 2472.12341226 -863.9697239 2472.12314656 -869.44154057 2472.12723524 C-874.39419268 2472.13090759 -879.34682169 2472.13008016 -884.29947284 2472.12547626 C-886.08703768 2472.12463352 -887.87460425 2472.1255043 -889.66216725 2472.12820339 C-892.06879049 2472.13160085 -894.47533017 2472.12895339 -896.8819501 2472.12467116 C-897.58345856 2472.12713146 -898.28496701 2472.12959175 -899.00773329 2472.13212659 C-903.77168318 2472.11415841 -903.77168318 2472.11415841 -906 2471 C-906 2047.94 -906 1624.88 -906 1189 C-1029.75 1189 -1153.5 1189 -1281 1189 C-1274.29927007 1181.18248175 -1274.29927007 1181.18248175 -1271.0625 1178.5 C-1268.42591932 1176.25865627 -1265.92207685 1173.97173218 -1263.5 1171.5 C-1260.46167583 1168.40643357 -1257.2523468 1165.57894493 -1253.96875 1162.75 C-1252.06976929 1161.06201714 -1250.27994012 1159.31230266 -1248.5 1157.5 C-1245.46167583 1154.40643357 -1242.2523468 1151.57894493 -1238.96875 1148.75 C-1237.06976929 1147.06201714 -1235.27994012 1145.31230266 -1233.5 1143.5 C-1230.46167583 1140.40643357 -1227.2523468 1137.57894493 -1223.96875 1134.75 C-1222.06976929 1133.06201714 -1220.27994012 1131.31230266 -1218.5 1129.5 C-1215.46167583 1126.40643357 -1212.2523468 1123.57894493 -1208.96875 1120.75 C-1207.06976929 1119.06201714 -1205.27994012 1117.31230266 -1203.5 1115.5 C-1200.46167583 1112.40643357 -1197.2523468 1109.57894493 -1193.96875 1106.75 C-1192.06976929 1105.06201714 -1190.27994012 1103.31230266 -1188.5 1101.5 C-1185.46167583 1098.40643357 -1182.2523468 1095.57894493 -1178.96875 1092.75 C-1177.06976929 1091.06201714 -1175.27994012 1089.31230266 -1173.5 1087.5 C-1170.46167583 1084.40643357 -1167.2523468 1081.57894493 -1163.96875 1078.75 C-1162.06976929 1077.06201714 -1160.27994012 1075.31230266 -1158.5 1073.5 C-1155.46167583 1070.40643357 -1152.2523468 1067.57894493 -1148.96875 1064.75 C-1147.06976929 1063.06201714 -1145.27994012 1061.31230266 -1143.5 1059.5 C-1140.46167583 1056.40643357 -1137.2523468 1053.57894493 -1133.96875 1050.75 C-1132.06976929 1049.06201714 -1130.27994012 1047.31230266 -1128.5 1045.5 C-1125.46167583 1042.40643357 -1122.2523468 1039.57894493 -1118.96875 1036.75 C-1117.06976929 1035.06201714 -1115.27994012 1033.31230266 -1113.5 1031.5 C-1110.46167583 1028.40643357 -1107.2523468 1025.57894493 -1103.96875 1022.75 C-1102.06976929 1021.06201714 -1100.27994012 1019.31230266 -1098.5 1017.5 C-1095.46167583 1014.40643357 -1092.2523468 1011.57894493 -1088.96875 1008.75 C-1087.06976929 1007.06201714 -1085.27994012 1005.31230266 -1083.5 1003.5 C-1080.46167583 1000.40643357 -1077.2523468 997.57894493 -1073.96875 994.75 C-1072.06976929 993.06201714 -1070.27994012 991.31230266 -1068.5 989.5 C-1065.46167583 986.40643357 -1062.2523468 983.57894493 -1058.96875 980.75 C-1057.06976929 979.06201714 -1055.27994012 977.31230266 -1053.5 975.5 C-1050.46167583 972.40643357 -1047.2523468 969.57894493 -1043.96875 966.75 C-1042.06976929 965.06201714 -1040.27994012 963.31230266 -1038.5 961.5 C-1035.46167583 958.40643357 -1032.2523468 955.57894493 -1028.96875 952.75 C-1027.06976929 951.06201714 -1025.27994012 949.31230266 -1023.5 947.5 C-1020.46167583 944.40643357 -1017.2523468 941.57894493 -1013.96875 938.75 C-1011.49363556 936.54989828 -1009.19254273 934.20585486 -1006.87426758 931.84301758 C-1005.06999067 930.06882371 -1003.21170309 928.41067338 -1001.29296875 926.76171875 C-997.02751351 923.05284026 -992.91229268 919.20268209 -988.8125 915.3125 C-983.17806822 909.98734219 -977.52182867 904.68935509 -971.81591797 899.44091797 C-967.67117488 895.6262073 -963.55162703 891.78519229 -959.4375 887.9375 C-954.01992345 882.87219665 -948.56834446 877.8474116 -943.09375 872.84375 C-939.54022497 869.58635206 -936.02057466 866.29292446 -932.5 863 C-927.01461826 857.87003656 -921.49978027 852.7748995 -915.95703125 847.70703125 C-912.81666841 844.83509341 -909.68861186 841.94993466 -906.5625 839.0625 C-906.02222168 838.56347168 -905.48194336 838.06444336 -904.92529297 837.55029297 C-903.83051694 836.53895328 -902.7357905 835.52755992 -901.64111328 834.51611328 C-898.92822414 832.00985896 -896.21405141 829.50499554 -893.5 827 C-892.41666043 826.00000676 -891.33332709 825.00000676 -890.25 824 C-888.08333333 822 -885.91666667 820 -883.75 818 C-883.21366943 817.50491943 -882.67733887 817.00983887 -882.12475586 816.49975586 C-881.04226129 815.50054262 -879.95974179 814.50135638 -878.87719727 813.50219727 C-876.15582492 810.99038165 -873.43489805 808.47808667 -870.71484375 805.96484375 C-864.99291683 800.67887317 -859.26216573 795.40289196 -853.51708984 790.14208984 C-848.21140514 785.28158878 -842.92601276 780.39919088 -837.64111328 775.51611328 C-834.92822414 773.00985896 -832.21405141 770.50499554 -829.5 768 C-828.41666043 767.00000676 -827.33332709 766.00000676 -826.25 765 C-824.08333333 763 -821.91666667 761 -819.75 759 C-819.21366943 758.50491943 -818.67733887 758.00983887 -818.12475586 757.49975586 C-817.04226129 756.50054262 -815.95974179 755.50135638 -814.87719727 754.50219727 C-812.15582492 751.99038165 -809.43489805 749.47808667 -806.71484375 746.96484375 C-800.99291683 741.67887317 -795.26216573 736.40289196 -789.51708984 731.14208984 C-784.21140514 726.28158878 -778.92601276 721.39919088 -773.64111328 716.51611328 C-770.38760612 713.51041862 -767.13236124 710.50660606 -763.87744141 707.50244141 C-761.15600027 704.99053078 -758.43498251 702.47816471 -755.71484375 699.96484375 C-749.99291683 694.67887317 -744.26216573 689.40289196 -738.51708984 684.14208984 C-733.21140514 679.28158878 -727.92601276 674.39919088 -722.64111328 669.51611328 C-719.92822414 667.00985896 -717.21405141 664.50499554 -714.5 662 C-713.41666043 661.00000676 -712.33332709 660.00000676 -711.25 659 C-709.08333333 657 -706.91666667 655 -704.75 653 C-704.21366943 652.50491943 -703.67733887 652.00983887 -703.12475586 651.49975586 C-702.04226129 650.50054262 -700.95974179 649.50135638 -699.87719727 648.50219727 C-697.15582492 645.99038165 -694.43489805 643.47808667 -691.71484375 640.96484375 C-685.99291683 635.67887317 -680.26216573 630.40289196 -674.51708984 625.14208984 C-669.21140514 620.28158878 -663.92601276 615.39919088 -658.64111328 610.51611328 C-655.38760612 607.51041862 -652.13236124 604.50660606 -648.87744141 601.50244141 C-646.15600027 598.99053078 -643.43498251 596.47816471 -640.71484375 593.96484375 C-634.99291683 588.67887317 -629.26216573 583.40289196 -623.51708984 578.14208984 C-618.21140514 573.28158878 -612.92601276 568.39919088 -607.64111328 563.51611328 C-604.92822414 561.00985896 -602.21405141 558.50499554 -599.5 556 C-598.41666043 555.00000676 -597.33332709 554.00000676 -596.25 553 C-594.08333333 551 -591.91666667 549 -589.75 547 C-589.21366943 546.50491943 -588.67733887 546.00983887 -588.12475586 545.49975586 C-587.04226129 544.50054262 -585.95974179 543.50135638 -584.87719727 542.50219727 C-582.15582492 539.99038165 -579.43489805 537.47808667 -576.71484375 534.96484375 C-570.99291683 529.67887317 -565.26216573 524.40289196 -559.51708984 519.14208984 C-554.21140514 514.28158878 -548.92601276 509.39919088 -543.64111328 504.51611328 C-540.92822414 502.00985896 -538.21405141 499.50499554 -535.5 497 C-534.41666043 496.00000676 -533.33332709 495.00000676 -532.25 494 C-512.74999999 476 -512.74999999 476 -511.12548828 474.50048828 C-510.04047744 473.49891474 -508.95551662 472.497287 -507.87060547 471.49560547 C-505.18834243 469.01923728 -502.50526066 466.54376936 -499.8203125 464.0703125 C-493.96371312 458.67284325 -488.1279906 453.25425755 -482.3125 447.8125 C-478.26260489 444.02365818 -474.20013016 440.25582088 -470.0625 436.5625 C-464.96893353 432.01134327 -460.00137382 427.3300894 -455.02587891 422.65087891 C-450.07286051 417.99599658 -445.07787197 413.39200521 -440.05859375 408.80859375 C-436.51537175 405.56443698 -433.00833315 402.28178925 -429.5 399 C-424.06191195 393.91342073 -418.59013253 388.86732543 -413.09375 383.84375 C-409.54022535 380.5863524 -406.02054571 377.29295488 -402.5 374 C-397.06188964 368.91344425 -391.59013288 363.86732575 -386.09375 358.84375 C-382.54022535 355.5863524 -379.02054571 352.29295488 -375.5 349 C-371.02063191 344.81020722 -366.52736182 340.63791134 -362 336.5 C-356.84596432 331.78872712 -351.7370629 327.03100608 -346.63671875 322.26171875 C-342.60466286 318.49298079 -338.55952748 314.73912081 -334.5 311 C-329.17280028 306.09274273 -323.87493039 301.1547795 -318.58374023 296.20874023 C-314.59046914 292.47816409 -310.5829724 288.76372894 -306.5625 285.0625 C-301.68246351 280.56900106 -296.83541966 276.04145921 -292 271.5 C-286.64458945 266.47016179 -281.26861146 261.46440409 -275.86328125 256.48828125 C-271.7254898 252.67662115 -267.60984858 248.84175806 -263.5 245 C-258.32227508 240.16036909 -253.1267974 235.34094145 -247.9140625 230.5390625 C-243.76028843 226.70948543 -239.62745863 222.85791031 -235.5 219 C-230.32225349 214.16039204 -225.12679757 209.34094161 -219.9140625 204.5390625 C-215.76028843 200.70948543 -211.62745863 196.85791031 -207.5 193 C-202.32225349 188.16039204 -197.12679757 183.34094161 -191.9140625 178.5390625 C-187.76028843 174.70948543 -183.62745863 170.85791031 -179.5 167 C-174.32225349 162.16039204 -169.12679757 157.34094161 -163.9140625 152.5390625 C-159.76028843 148.70948543 -155.62745863 144.85791031 -151.5 141 C-146.32225349 136.16039204 -141.12679757 131.34094161 -135.9140625 126.5390625 C-131.76028843 122.70948543 -127.62745863 118.85791031 -123.5 115 C-118.32225349 110.16039204 -113.12679757 105.34094161 -107.9140625 100.5390625 C-103.76028843 96.70948543 -99.62745863 92.85791031 -95.5 89 C-90.84739543 84.65123899 -86.18399903 80.31493047 -81.5 76 C-74.30154871 69.36734654 -67.15062942 62.68412556 -60 56 C-52.32404486 48.82482073 -44.64159878 41.65768087 -36.91357422 34.53857422 C-32.1258282 30.1246199 -27.36668171 25.6804085 -22.61010742 21.23291016 C-17.83145282 16.76770153 -13.03106714 12.32666157 -8.2109375 7.90625 C-5.40972177 5.3305867 -2.66849308 2.71307411 0 0 Z " fill="#FEFEFE" transform="translate(1668,388)"/>
</svg>
